%TF.GenerationSoftware,Altium Limited,Altium Designer,26.2.0 (7)*%
G04 Layer_Color=32896*
%FSLAX45Y45*%
%MOMM*%
%TF.SameCoordinates,0EF2FD25-9F0B-49EC-8662-A35640DF5B91*%
%TF.FilePolarity,Positive*%
%TF.FileFunction,Legend,Bot*%
%TF.Part,Single*%
G01*
G75*
%TA.AperFunction,NonConductor*%
%ADD45C,0.25000*%
%ADD46C,0.20000*%
%ADD47C,0.25400*%
%ADD50C,0.16000*%
%ADD51C,0.12500*%
%ADD52C,0.12700*%
D45*
X10237500Y9522500D02*
G03*
X10237500Y9522500I-12500J0D01*
G01*
X12012500Y8680000D02*
G03*
X12012500Y8680000I-12500J0D01*
G01*
D46*
X9985000Y9890000D02*
X10067500Y9972500D01*
X12542500Y9732500D02*
X12707500Y9897500D01*
X12780000D01*
X12623750Y10206250D02*
X12665000Y10247500D01*
X12735000Y10122500D02*
X12775000Y10162500D01*
X12665000Y10247500D02*
Y10417500D01*
X12717500Y10470000D01*
X11275000Y9155000D02*
Y9265000D01*
X11125000Y9155000D02*
Y9265000D01*
X10455000Y9530000D02*
X10575000D01*
X10535000Y8562500D02*
X10670000D01*
X11297500Y7907500D02*
X11757500D01*
X11297500Y8737500D02*
X11757500D01*
D47*
X10883681Y7991500D02*
G03*
X10883681Y7991500I-11180J0D01*
G01*
X11916180Y8900000D02*
G03*
X11916180Y8900000I-11180J0D01*
G01*
X11348090Y9937500D02*
G03*
X11348090Y9937500I-5590J0D01*
G01*
X10406180Y8540000D02*
G03*
X10406180Y8540000I-11180J0D01*
G01*
D50*
X10475000Y10200000D02*
G03*
X10475000Y10200000I-150000J0D01*
G01*
X9940974Y9606000D02*
X9861000D01*
Y9645987D01*
X9874329Y9659316D01*
X9887658D01*
X9900987Y9645987D01*
Y9606000D01*
Y9645987D01*
X9914316Y9659316D01*
X9927645D01*
X9940974Y9645987D01*
Y9606000D01*
Y9685974D02*
X9874329D01*
X9861000Y9699303D01*
Y9725961D01*
X9874329Y9739290D01*
X9940974D01*
Y9765948D02*
Y9819265D01*
X9927645D01*
X9874329Y9765948D01*
X9861000D01*
Y9819265D01*
X9900987Y9845923D02*
Y9899239D01*
X9927645Y9872581D02*
X9874329D01*
X12732747Y9522626D02*
X12713897Y9522625D01*
X12695047Y9503775D01*
Y9484925D01*
X12704472Y9475500D01*
X12723322D01*
X12732747Y9484925D01*
X12723322Y9475500D01*
X12723322Y9456650D01*
X12732747Y9447225D01*
X12751597Y9447225D01*
X12770447Y9466075D01*
Y9484925D01*
X12629072Y9437800D02*
X12666772Y9475500D01*
X12695047Y9447225D01*
X12666772Y9437800D01*
X12657347Y9428375D01*
Y9409525D01*
X12676197Y9390675D01*
X12695047Y9390675D01*
X12713897Y9409525D01*
Y9428375D01*
X12732747Y9268626D02*
X12713897Y9268625D01*
X12695047Y9249775D01*
Y9230925D01*
X12704472Y9221500D01*
X12723322D01*
X12732747Y9230925D01*
X12723322Y9221500D01*
X12723322Y9202650D01*
X12732747Y9193225D01*
X12751597Y9193225D01*
X12770447Y9212075D01*
Y9230925D01*
X12666772Y9221500D02*
X12629072Y9183800D01*
X12638497Y9174375D01*
X12713897D01*
X12723322Y9164950D01*
X12695047Y7681925D02*
Y7700775D01*
X12713897Y7719625D01*
X12732747Y7719625D01*
X12770447Y7681925D01*
Y7663075D01*
X12751597Y7644225D01*
X12732747Y7644225D01*
X12713897Y7663075D01*
X12732747Y7681925D01*
X12723322Y7615950D02*
X12666772Y7672500D01*
X12685622Y7578250D01*
X12629072Y7634800D01*
X12610222Y7615950D02*
X12666772Y7559399D01*
X12638497Y7531124D01*
X12619647Y7531124D01*
X12581946Y7568825D01*
Y7587674D01*
X12610222Y7615950D01*
X12779873Y7926500D02*
X12723322Y7983050D01*
X12695047Y7954775D01*
Y7935925D01*
X12713897Y7917075D01*
X12732747Y7917075D01*
X12761022Y7945350D01*
X12742172Y7926500D02*
Y7888800D01*
X12666772Y7926500D02*
X12685622Y7832249D01*
X12629072Y7888800D02*
X12723322Y7869949D01*
Y8237050D02*
X12685622Y8199350D01*
X12704472Y8218200D01*
X12761022Y8161650D01*
X12666772Y8180500D02*
X12685622Y8086249D01*
X12629072Y8142800D02*
X12723322Y8123949D01*
X12695047Y8443925D02*
Y8462775D01*
X12713897Y8481625D01*
X12732747Y8481625D01*
X12742172Y8472200D01*
X12742172Y8453350D01*
X12723322Y8434500D01*
X12723322Y8415650D01*
X12732747Y8406225D01*
X12751597Y8406225D01*
X12770447Y8425075D01*
Y8443925D01*
X12666772Y8434500D02*
X12723322Y8377950D01*
X12695047Y8349674D01*
X12676197Y8349675D01*
X12638497Y8387375D01*
Y8406225D01*
X12666772Y8434500D01*
Y8321399D02*
X12629072Y8359100D01*
X12591372D01*
Y8321399D01*
X12629072Y8283699D01*
X12600796Y8311974D01*
X12638497Y8349675D01*
X12695047Y8672925D02*
Y8691775D01*
X12713897Y8710625D01*
X12732747Y8710625D01*
X12742172Y8701200D01*
X12742172Y8682350D01*
X12723322Y8663500D01*
X12723322Y8644650D01*
X12732747Y8635225D01*
X12751597Y8635225D01*
X12770447Y8654075D01*
Y8672925D01*
X12638497Y8616375D02*
Y8635225D01*
X12657347Y8654075D01*
X12676197Y8654075D01*
X12713897Y8616375D01*
Y8597525D01*
X12695047Y8578674D01*
X12676197Y8578675D01*
X12610222Y8606950D02*
X12666772Y8550399D01*
X12629072Y8512699D01*
X12741500Y9032645D02*
X12728171Y9045974D01*
X12701513D01*
X12688184Y9032645D01*
Y9019316D01*
X12701513Y9005987D01*
X12714842D01*
X12701513D01*
X12688184Y8992658D01*
Y8979329D01*
X12701513Y8966000D01*
X12728171D01*
X12741500Y8979329D01*
X12608210Y9045974D02*
X12634868Y9032645D01*
X12661526Y9005987D01*
Y8979329D01*
X12648197Y8966000D01*
X12621539D01*
X12608210Y8979329D01*
Y8992658D01*
X12621539Y9005987D01*
X12661526D01*
X12732747Y9776626D02*
X12713897Y9776626D01*
X12695047Y9757776D01*
Y9738926D01*
X12704472Y9729500D01*
X12723322D01*
X12732747Y9738926D01*
X12723322Y9729500D01*
X12723322Y9710650D01*
X12732747Y9701225D01*
X12751597Y9701225D01*
X12770447Y9720075D01*
Y9738926D01*
X12666772Y9729500D02*
X12704472Y9691800D01*
Y9654100D01*
X12666772D01*
X12629072Y9691800D01*
X12619647Y9663525D02*
X12600796Y9663525D01*
X12581946Y9644675D01*
Y9625825D01*
X12591372Y9616400D01*
X12610221D01*
X12619647Y9625825D01*
X12610221Y9616400D01*
X12610222Y9597550D01*
X12619647Y9588125D01*
X12638497Y9588125D01*
X12657347Y9606975D01*
Y9625825D01*
X12433184Y9728474D02*
X12486500D01*
Y9688487D01*
X12459842Y9701816D01*
X12446513D01*
X12433184Y9688487D01*
Y9661829D01*
X12446513Y9648500D01*
X12473171D01*
X12486500Y9661829D01*
X12406526Y9728474D02*
Y9675158D01*
X12379868Y9648500D01*
X12353210Y9675158D01*
Y9728474D01*
X12711500Y10022645D02*
X12698171Y10035974D01*
X12671513D01*
X12658184Y10022645D01*
Y10009316D01*
X12671513Y9995987D01*
X12684842D01*
X12671513D01*
X12658184Y9982658D01*
Y9969329D01*
X12671513Y9956000D01*
X12698171D01*
X12711500Y9969329D01*
X12631526Y10035974D02*
Y9982658D01*
X12604868Y9956000D01*
X12578210Y9982658D01*
Y10035974D01*
X12551552Y10022645D02*
X12538223Y10035974D01*
X12511565D01*
X12498236Y10022645D01*
Y10009316D01*
X12511565Y9995987D01*
X12524894D01*
X12511565D01*
X12498236Y9982658D01*
Y9969329D01*
X12511565Y9956000D01*
X12538223D01*
X12551552Y9969329D01*
X12538184Y10162645D02*
X12551513Y10175974D01*
X12578171D01*
X12591500Y10162645D01*
Y10109329D01*
X12578171Y10096000D01*
X12551513D01*
X12538184Y10109329D01*
Y10135987D01*
X12564842D01*
X12511526Y10096000D02*
Y10175974D01*
X12458210Y10096000D01*
Y10175974D01*
X12431552D02*
Y10096000D01*
X12391564D01*
X12378236Y10109329D01*
Y10162645D01*
X12391564Y10175974D01*
X12431552D01*
X12706500Y10731000D02*
Y10810974D01*
X12666513D01*
X12653184Y10797645D01*
Y10770987D01*
X12666513Y10757658D01*
X12706500D01*
X12626526Y10810974D02*
Y10731000D01*
X12599868Y10757658D01*
X12573210Y10731000D01*
Y10810974D01*
X12546552Y10731000D02*
Y10810974D01*
X12519894Y10784316D01*
X12493236Y10810974D01*
Y10731000D01*
D51*
X10773749Y9232500D02*
G03*
X10773749Y9232500I-6250J0D01*
G01*
D52*
X10767499Y9042500D02*
Y9087500D01*
X10897499Y8972500D02*
X10952499D01*
X11082499Y9042500D02*
Y9087500D01*
X10715000Y9027500D02*
Y9107500D01*
X10295000Y9027500D02*
Y9107500D01*
%TF.MD5,d900f027372f5c247ccf7dbe9016ab1c*%
M02*
