%TF.GenerationSoftware,Altium Limited,Altium Designer,26.2.0 (7)*%
G04 Layer_Color=128*
%FSLAX45Y45*%
%MOMM*%
%TF.SameCoordinates,1220A514-1184-4156-BF0E-9310A74DF62C*%
%TF.FilePolarity,Positive*%
%TF.FileFunction,Paste,Bot*%
%TF.Part,Single*%
G01*
G75*
%TA.AperFunction,SMDPad,CuDef*%
%ADD10R,1.00000X0.60000*%
%ADD13R,0.60000X1.00000*%
%ADD35R,0.76000X0.40500*%
%ADD36R,2.35000X2.20000*%
%ADD37R,1.45000X0.40000*%
%ADD38R,1.80000X1.15000*%
%ADD39R,0.60000X1.20000*%
%ADD40R,1.20000X1.40000*%
%ADD41R,1.20000X1.52000*%
%ADD42R,0.99000X0.40500*%
%ADD43R,4.40000X1.50000*%
%ADD44R,1.15000X1.22000*%
G36*
X11618750Y9982500D02*
X11446250D01*
Y10207500D01*
X11618750D01*
Y9982500D01*
D02*
G37*
D10*
X12590000Y8732500D02*
D03*
Y8872500D02*
D03*
X10917500Y8360000D02*
D03*
Y8220000D02*
D03*
X10522500Y7462500D02*
D03*
Y7602500D02*
D03*
D13*
X11392500Y8840000D02*
D03*
X10785000Y7602500D02*
D03*
X10832500Y9817500D02*
D03*
X11532500Y8840000D02*
D03*
X10945000Y9470000D02*
D03*
Y9330000D02*
D03*
X11100000Y11202500D02*
D03*
X11747700Y10777700D02*
D03*
X10645000Y7602500D02*
D03*
X11607700Y10777700D02*
D03*
X11240000Y11202500D02*
D03*
X10805000Y9330000D02*
D03*
Y9470000D02*
D03*
X10692500Y9817500D02*
D03*
D35*
X11629500Y10192500D02*
D03*
Y10127500D02*
D03*
Y10062500D02*
D03*
Y9997500D02*
D03*
D36*
X11732500Y9208500D02*
D03*
X10700000Y8300000D02*
D03*
Y7988000D02*
D03*
X11732500Y8896500D02*
D03*
D37*
X11187500Y8680000D02*
D03*
Y8030000D02*
D03*
Y7965000D02*
D03*
Y8160000D02*
D03*
Y8550000D02*
D03*
Y8225000D02*
D03*
Y8615000D02*
D03*
Y8485000D02*
D03*
Y8095000D02*
D03*
X11867500Y8615000D02*
D03*
Y8680000D02*
D03*
Y8355000D02*
D03*
Y8420000D02*
D03*
Y8550000D02*
D03*
Y8485000D02*
D03*
Y8160000D02*
D03*
Y8095000D02*
D03*
X11187500Y8290000D02*
D03*
Y8420000D02*
D03*
Y8355000D02*
D03*
X11867500Y7965000D02*
D03*
Y8030000D02*
D03*
Y8225000D02*
D03*
Y8290000D02*
D03*
D38*
X11200000Y9065000D02*
D03*
Y9355000D02*
D03*
D39*
X11019999Y8945000D02*
D03*
Y9185000D02*
D03*
X10924999D02*
D03*
X10829999D02*
D03*
Y8945000D02*
D03*
D40*
X10877500Y9980000D02*
D03*
X10707500D02*
D03*
D41*
X10828500Y8705000D02*
D03*
X10396500D02*
D03*
D42*
X11332500Y9997500D02*
D03*
Y10062500D02*
D03*
Y10127500D02*
D03*
Y10192500D02*
D03*
D43*
X10505000Y8915000D02*
D03*
Y9220000D02*
D03*
D44*
X10360000Y9435000D02*
D03*
X10670000D02*
D03*
%TF.MD5,a3453ecb91ad7f9c4b4956826dec266a*%
M02*
