%TF.GenerationSoftware,Altium Limited,Altium Designer,26.2.0 (7)*%
G04 Layer_Color=8421504*
%FSLAX45Y45*%
%MOMM*%
%TF.SameCoordinates,1220A514-1184-4156-BF0E-9310A74DF62C*%
%TF.FilePolarity,Positive*%
%TF.FileFunction,Paste,Top*%
%TF.Part,Single*%
G01*
G75*
%TA.AperFunction,SMDPad,CuDef*%
%ADD10R,1.00000X0.60000*%
%TA.AperFunction,ConnectorPad*%
%ADD11R,1.20000X1.00000*%
%TA.AperFunction,SMDPad,CuDef*%
%ADD12R,0.80000X0.80000*%
%ADD13R,0.60000X1.00000*%
%ADD14R,1.60000X0.90000*%
%ADD15R,0.90000X0.80000*%
%TA.AperFunction,ConnectorPad*%
%ADD16R,1.00000X1.20000*%
%TA.AperFunction,SMDPad,CuDef*%
%ADD17R,3.80000X3.80000*%
%ADD18R,0.60000X0.55000*%
G04:AMPARAMS|DCode=19|XSize=0.6mm|YSize=1mm|CornerRadius=0mm|HoleSize=0mm|Usage=FLASHONLY|Rotation=225.000|XOffset=0mm|YOffset=0mm|HoleType=Round|Shape=Rectangle|*
%AMROTATEDRECTD19*
4,1,4,-0.14142,0.56569,0.56569,-0.14142,0.14142,-0.56569,-0.56569,0.14142,-0.14142,0.56569,0.0*
%
%ADD19ROTATEDRECTD19*%

%ADD20R,1.22000X1.15000*%
D10*
X11985000Y7667500D02*
D03*
X12680000Y8662500D02*
D03*
Y8522500D02*
D03*
X12687500Y7460000D02*
D03*
X12680000Y8942500D02*
D03*
X12685000Y10477500D02*
D03*
Y10337500D02*
D03*
X12680000Y8802500D02*
D03*
X12687500Y7600000D02*
D03*
X11685000Y7667500D02*
D03*
X10162500Y10542500D02*
D03*
Y10402500D02*
D03*
X11835000Y7527500D02*
D03*
Y7667500D02*
D03*
X11985000Y7527500D02*
D03*
X11535000D02*
D03*
Y7667500D02*
D03*
X11685000Y7527500D02*
D03*
D11*
X11372500Y8208100D02*
D03*
Y8589100D02*
D03*
Y8335100D02*
D03*
Y8716100D02*
D03*
Y8462100D02*
D03*
Y8081100D02*
D03*
Y9351100D02*
D03*
Y7954100D02*
D03*
Y8843100D02*
D03*
Y8970100D02*
D03*
Y9097100D02*
D03*
Y9224100D02*
D03*
Y7827100D02*
D03*
Y7700100D02*
D03*
X10138500Y7827100D02*
D03*
Y9351100D02*
D03*
Y9224100D02*
D03*
Y9097100D02*
D03*
Y7700100D02*
D03*
Y8335100D02*
D03*
Y8843100D02*
D03*
Y8716100D02*
D03*
Y8589100D02*
D03*
Y8462100D02*
D03*
Y8208100D02*
D03*
Y8081100D02*
D03*
Y7954100D02*
D03*
Y8970100D02*
D03*
D12*
X11685000Y7227500D02*
D03*
X11835000D02*
D03*
X11985000D02*
D03*
X11535000D02*
D03*
Y7377500D02*
D03*
X11985000D02*
D03*
X11835000D02*
D03*
X11685000D02*
D03*
D13*
X12105000Y11372500D02*
D03*
X10040000Y9867500D02*
D03*
X9900000D02*
D03*
X11965000Y11372500D02*
D03*
X10680000Y10407500D02*
D03*
X10540000D02*
D03*
D14*
X12007500Y10915000D02*
D03*
Y11204999D02*
D03*
D15*
X10680000Y10750000D02*
D03*
Y10570000D02*
D03*
X10480000Y10660000D02*
D03*
D16*
X10438000Y9817500D02*
D03*
X11200000D02*
D03*
X11073000D02*
D03*
X10946000D02*
D03*
X10819000D02*
D03*
X10692000D02*
D03*
X10565000D02*
D03*
X10311000D02*
D03*
D17*
X10756500Y8200100D02*
D03*
D18*
X10020000Y9485000D02*
D03*
Y9740000D02*
D03*
X9901000Y9485000D02*
D03*
Y9740000D02*
D03*
D19*
X11030503Y10250502D02*
D03*
X11129498Y10349497D02*
D03*
X10933003Y10350503D02*
D03*
X11031998Y10449498D02*
D03*
D20*
X10722500Y10975000D02*
D03*
Y11285000D02*
D03*
%TF.MD5,e4dbb1dfaccca9e693742638c44fb272*%
M02*
