%TF.GenerationSoftware,Altium Limited,Altium Designer,26.2.0 (7)*%
G04 Layer_Color=2752767*
%FSLAX45Y45*%
%MOMM*%
%TF.SameCoordinates,0EF2FD25-9F0B-49EC-8662-A35640DF5B91*%
%TF.FilePolarity,Positive*%
%TF.FileFunction,Drawing*%
%TF.Part,Single*%
G01*
G75*
%TA.AperFunction,NonConductor*%
%ADD52C,0.12700*%
%ADD95C,0.16933*%
%ADD96C,0.10160*%
D52*
X10274200Y10149200D02*
X10299600D01*
X10325000Y10174600D01*
X10350400Y10149200D01*
X10375800D01*
Y10174600D01*
X10350400Y10200000D01*
X10375800Y10225400D01*
Y10250800D01*
X10350400D01*
X10325000Y10225400D01*
X10299600Y10250800D01*
X10274200D01*
Y10225400D01*
X10299600Y10200000D01*
X10274200Y10174600D01*
Y10149200D01*
Y10849200D02*
X10299600D01*
X10325000Y10874600D01*
X10350400Y10849200D01*
X10375800D01*
Y10874600D01*
X10350400Y10900000D01*
X10375800Y10925400D01*
Y10950800D01*
X10350400D01*
X10325000Y10925400D01*
X10299600Y10950800D01*
X10274200D01*
Y10925400D01*
X10299600Y10900000D01*
X10274200Y10874600D01*
Y10849200D01*
X12365000Y10986700D02*
X12390400Y11012100D01*
X12415800D01*
X12390400Y11037500D01*
X12415800Y11062900D01*
X12390400D01*
X12365000Y11088300D01*
X12339600Y11062900D01*
X12314200D01*
X12339600Y11037500D01*
X12314200Y11012100D01*
X12339600D01*
X12365000Y10986700D01*
Y11007020D02*
X12380240Y11022260D01*
X12395480D01*
X12380240Y11037500D01*
X12395480Y11052740D01*
X12380240D01*
X12365000Y11067980D01*
X12349760Y11052740D01*
X12334520D01*
X12349760Y11037500D01*
X12334520Y11022260D01*
X12349760D01*
X12365000Y11007020D01*
Y10386700D02*
X12390400Y10412100D01*
X12415800D01*
X12390400Y10437500D01*
X12415800Y10462900D01*
X12390400D01*
X12365000Y10488300D01*
X12339600Y10462900D01*
X12314200D01*
X12339600Y10437500D01*
X12314200Y10412100D01*
X12339600D01*
X12365000Y10386700D01*
Y10407020D02*
X12380240Y10422260D01*
X12395480D01*
X12380240Y10437500D01*
X12395480Y10452740D01*
X12380240D01*
X12365000Y10467980D01*
X12349760Y10452740D01*
X12334520D01*
X12349760Y10437500D01*
X12334520Y10422260D01*
X12349760D01*
X12365000Y10407020D01*
X12249200Y9882500D02*
X12300000Y9933300D01*
X12350800Y9882500D01*
X12300000Y9831700D01*
X12249200Y9882500D01*
X11749200D02*
X11800000Y9933300D01*
X11850800Y9882500D01*
X11800000Y9831700D01*
X11749200Y9882500D01*
X11849200Y10336700D02*
X11874600D01*
X11900000Y10362100D01*
X11925400Y10336700D01*
X11950800D01*
Y10362100D01*
X11925400Y10387500D01*
X11950800Y10412900D01*
Y10438300D01*
X11925400D01*
X11900000Y10412900D01*
X11874600Y10438300D01*
X11849200D01*
Y10412900D01*
X11874600Y10387500D01*
X11849200Y10362100D01*
Y10336700D01*
X12377100Y8052100D02*
Y8026700D01*
X12427900D01*
Y8052100D01*
X12453300D01*
Y8102900D01*
X12427900D01*
Y8128300D01*
X12377100D01*
Y8102900D01*
X12351700D01*
Y8052100D01*
X12377100D01*
Y7902100D02*
Y7876700D01*
X12427900D01*
Y7902100D01*
X12453300D01*
Y7952900D01*
X12427900D01*
Y7978300D01*
X12377100D01*
Y7952900D01*
X12351700D01*
Y7902100D01*
X12377100D01*
Y7752100D02*
Y7726700D01*
X12427900D01*
Y7752100D01*
X12453300D01*
Y7802900D01*
X12427900D01*
Y7828300D01*
X12377100D01*
Y7802900D01*
X12351700D01*
Y7752100D01*
X12377100D01*
Y7302100D02*
Y7276700D01*
X12427900D01*
Y7302100D01*
X12453300D01*
Y7352900D01*
X12427900D01*
Y7378300D01*
X12377100D01*
Y7352900D01*
X12351700D01*
Y7302100D01*
X12377100D01*
Y7602100D02*
Y7576700D01*
X12427900D01*
Y7602100D01*
X12453300D01*
Y7652900D01*
X12427900D01*
Y7678300D01*
X12377100D01*
Y7652900D01*
X12351700D01*
Y7602100D01*
X12377100D01*
Y7452100D02*
Y7426700D01*
X12427900D01*
Y7452100D01*
X12453300D01*
Y7502900D01*
X12427900D01*
Y7528300D01*
X12377100D01*
Y7502900D01*
X12351700D01*
Y7452100D01*
X12377100D01*
Y9302101D02*
Y9276701D01*
X12427900D01*
Y9302101D01*
X12453300D01*
Y9352901D01*
X12427900D01*
Y9378301D01*
X12377100D01*
Y9352901D01*
X12351700D01*
Y9302101D01*
X12377100D01*
Y9152101D02*
Y9126701D01*
X12427900D01*
Y9152101D01*
X12453300D01*
Y9202901D01*
X12427900D01*
Y9228301D01*
X12377100D01*
Y9202901D01*
X12351700D01*
Y9152101D01*
X12377100D01*
Y9002101D02*
Y8976701D01*
X12427900D01*
Y9002101D01*
X12453300D01*
Y9052901D01*
X12427900D01*
Y9078301D01*
X12377100D01*
Y9052901D01*
X12351700D01*
Y9002101D01*
X12377100D01*
Y8552100D02*
Y8526700D01*
X12427900D01*
Y8552100D01*
X12453300D01*
Y8602900D01*
X12427900D01*
Y8628300D01*
X12377100D01*
Y8602900D01*
X12351700D01*
Y8552100D01*
X12377100D01*
Y8852100D02*
Y8826700D01*
X12427900D01*
Y8852100D01*
X12453300D01*
Y8902900D01*
X12427900D01*
Y8928300D01*
X12377100D01*
Y8902900D01*
X12351700D01*
Y8852100D01*
X12377100D01*
Y8702100D02*
Y8676700D01*
X12427900D01*
Y8702100D01*
X12453300D01*
Y8752900D01*
X12427900D01*
Y8778300D01*
X12377100D01*
Y8752900D01*
X12351700D01*
Y8702100D01*
X12377100D01*
X12902499Y10486700D02*
X12927901Y10512100D01*
X12953300D01*
X12927901Y10537500D01*
X12953300Y10562900D01*
X12927901D01*
X12902499Y10588300D01*
X12877100Y10562900D01*
X12851700D01*
X12877100Y10537500D01*
X12851700Y10512100D01*
X12877100D01*
X12902499Y10486700D01*
X12851700Y7646700D02*
X12877100Y7697500D01*
X12851700Y7748300D01*
X12902499Y7722900D01*
X12953300Y7748300D01*
X12927901Y7697500D01*
X12953300Y7646700D01*
X12902499Y7672100D01*
X12851700Y7646700D01*
X11629200Y10884200D02*
Y10985800D01*
X11730800D01*
Y10884200D01*
X11629200D01*
X11034200D02*
Y10985800D01*
X11135800D01*
Y10884200D01*
X11034200D01*
Y11019200D02*
Y11120800D01*
X11135800D01*
Y11019200D01*
X11034200D01*
X11629200D02*
Y11120800D01*
X11730800D01*
Y11019200D01*
X11629200D01*
X12851700Y9678700D02*
X12877100Y9729500D01*
X12851700Y9780300D01*
X12902499Y9754900D01*
X12953300Y9780300D01*
X12927901Y9729500D01*
X12953300Y9678700D01*
X12902499Y9704100D01*
X12851700Y9678700D01*
X12902499Y10232700D02*
X12927901Y10258100D01*
X12953300D01*
X12927901Y10283500D01*
X12953300Y10308900D01*
X12927901D01*
X12902499Y10334300D01*
X12877100Y10308900D01*
X12851700D01*
X12877100Y10283500D01*
X12851700Y10258100D01*
X12877100D01*
X12902499Y10232700D01*
X12851700Y8662700D02*
X12877100Y8713500D01*
X12851700Y8764300D01*
X12902499Y8738900D01*
X12953300Y8764300D01*
X12927901Y8713500D01*
X12953300Y8662700D01*
X12902499Y8688100D01*
X12851700Y8662700D01*
Y8408700D02*
X12877100Y8459500D01*
X12851700Y8510300D01*
X12902499Y8484900D01*
X12953300Y8510300D01*
X12927901Y8459500D01*
X12953300Y8408700D01*
X12902499Y8434100D01*
X12851700Y8408700D01*
X11544200Y11019200D02*
Y11120800D01*
X11645800D01*
Y11019200D01*
X11544200D01*
X11459200D02*
Y11120800D01*
X11560800D01*
Y11019200D01*
X11459200D01*
X11374200D02*
Y11120800D01*
X11475800D01*
Y11019200D01*
X11374200D01*
X11289200D02*
Y11120800D01*
X11390800D01*
Y11019200D01*
X11289200D01*
X11204200D02*
Y11120800D01*
X11305800D01*
Y11019200D01*
X11204200D01*
X11119200D02*
Y11120800D01*
X11220800D01*
Y11019200D01*
X11119200D01*
Y10884200D02*
Y10985800D01*
X11220800D01*
Y10884200D01*
X11119200D01*
X11204200D02*
Y10985800D01*
X11305800D01*
Y10884200D01*
X11204200D01*
X11289200D02*
Y10985800D01*
X11390800D01*
Y10884200D01*
X11289200D01*
X11374200D02*
Y10985800D01*
X11475800D01*
Y10884200D01*
X11374200D01*
X11459200D02*
Y10985800D01*
X11560800D01*
Y10884200D01*
X11459200D01*
X11544200D02*
Y10985800D01*
X11645800D01*
Y10884200D01*
X11544200D01*
X10950000Y11320200D02*
X10899200Y11421800D01*
X11000800D01*
X10950000Y11320200D01*
X11815000D02*
X11764200Y11421800D01*
X11865800D01*
X11815000Y11320200D01*
X12851700Y9170700D02*
X12877100Y9221500D01*
X12851700Y9272300D01*
X12902499Y9246900D01*
X12953300Y9272300D01*
X12927901Y9221500D01*
X12953300Y9170700D01*
X12902499Y9196100D01*
X12851700Y9170700D01*
Y9424700D02*
X12877100Y9475500D01*
X12851700Y9526300D01*
X12902499Y9500900D01*
X12953300Y9526300D01*
X12927901Y9475500D01*
X12953300Y9424700D01*
X12902499Y9450100D01*
X12851700Y9424700D01*
Y9932700D02*
X12877100Y9983500D01*
X12851700Y10034300D01*
X12902499Y10008900D01*
X12953300Y10034300D01*
X12927901Y9983500D01*
X12953300Y9932700D01*
X12902499Y9958100D01*
X12851700Y9932700D01*
Y8916700D02*
X12877100Y8967500D01*
X12851700Y9018300D01*
X12902499Y8992900D01*
X12953300Y9018300D01*
X12927901Y8967500D01*
X12953300Y8916700D01*
X12902499Y8942100D01*
X12851700Y8916700D01*
Y7900700D02*
X12877100Y7951500D01*
X12851700Y8002300D01*
X12902499Y7976900D01*
X12953300Y8002300D01*
X12927901Y7951500D01*
X12953300Y7900700D01*
X12902499Y7926100D01*
X12851700Y7900700D01*
Y8154700D02*
X12877100Y8205500D01*
X12851700Y8256300D01*
X12902499Y8230900D01*
X12953300Y8256300D01*
X12927901Y8205500D01*
X12953300Y8154700D01*
X12902499Y8180100D01*
X12851700Y8154700D01*
X12902499Y10740700D02*
X12927901Y10766100D01*
X12953300D01*
X12927901Y10791500D01*
X12953300Y10816900D01*
X12927901D01*
X12902499Y10842300D01*
X12877100Y10816900D01*
X12851700D01*
X12877100Y10791500D01*
X12851700Y10766100D01*
X12877100D01*
X12902499Y10740700D01*
X11649200Y10336700D02*
X11674600D01*
X11700000Y10362100D01*
X11725400Y10336700D01*
X11750800D01*
Y10362100D01*
X11725400Y10387500D01*
X11750800Y10412900D01*
Y10438300D01*
X11725400D01*
X11700000Y10412900D01*
X11674600Y10438300D01*
X11649200D01*
Y10412900D01*
X11674600Y10387500D01*
X11649200Y10362100D01*
Y10336700D01*
X11601700Y7961700D02*
Y8063300D01*
X11703300D01*
Y7961700D01*
X11601700D01*
X10959200Y8044200D02*
Y8145800D01*
X11060800D01*
Y8044200D01*
X10959200D01*
X10938426Y8552220D02*
Y8653820D01*
X11040026D01*
Y8552220D01*
X10938426D01*
X10976700Y8164200D02*
Y8265800D01*
X11078300D01*
Y8164200D01*
X10976700D01*
X10964200Y8659200D02*
Y8760800D01*
X11065800D01*
Y8659200D01*
X10964200D01*
X10966700Y8456700D02*
Y8558300D01*
X11068300D01*
Y8456700D01*
X10966700D01*
X10999200Y7849200D02*
Y7950800D01*
X11100800D01*
Y7849200D01*
X10999200D01*
X12349200Y8384200D02*
Y8485800D01*
X12450800D01*
Y8384200D01*
X12349200D01*
X11049197Y7449198D02*
Y7550798D01*
X11150797D01*
Y7449198D01*
X11049197D01*
X12549196Y11349197D02*
Y11450797D01*
X12650796D01*
Y11349197D01*
X12549196D01*
X12699196D02*
Y11450797D01*
X12800797D01*
Y11349197D01*
X12699196D01*
X9849197Y10749197D02*
Y10850797D01*
X9950797D01*
Y10749197D01*
X9849197D01*
X11574196Y8499197D02*
Y8600797D01*
X11675796D01*
Y8499197D01*
X11574196D01*
X10899197Y10749197D02*
Y10850797D01*
X11000797D01*
Y10749197D01*
X10899197D01*
X10374197Y8199197D02*
Y8300797D01*
X10475797D01*
Y8199197D01*
X10374197D01*
X9849197Y10149197D02*
Y10250797D01*
X9950797D01*
Y10149197D01*
X9849197D01*
X10824197Y10599197D02*
Y10700797D01*
X10925797D01*
Y10599197D01*
X10824197D01*
X10149197Y11349197D02*
Y11450797D01*
X10250797D01*
Y11349197D01*
X10149197D01*
X12249196D02*
Y11450797D01*
X12350796D01*
Y11349197D01*
X12249196D01*
X9849197Y10449197D02*
Y10550797D01*
X9950797D01*
Y10449197D01*
X9849197D01*
Y11049197D02*
Y11150797D01*
X9950797D01*
Y11049197D01*
X9849197D01*
X12624196Y11199197D02*
Y11300797D01*
X12725796D01*
Y11199197D01*
X12624196D01*
X10449197Y11349197D02*
Y11450797D01*
X10550797D01*
Y11349197D01*
X10449197D01*
X10974196Y10599197D02*
Y10700797D01*
X11075796D01*
Y10599197D01*
X10974196D01*
X10374197Y11199197D02*
Y11300797D01*
X10475797D01*
Y11199197D01*
X10374197D01*
X9924197Y10599197D02*
Y10700797D01*
X10025797D01*
Y10599197D01*
X9924197D01*
X10899197Y7449198D02*
Y7550798D01*
X11000797D01*
Y7449198D01*
X10899197D01*
X12624196Y10899197D02*
Y11000797D01*
X12725796D01*
Y10899197D01*
X12624196D01*
X9999197Y10149197D02*
Y10250797D01*
X10100797D01*
Y10149197D01*
X9999197D01*
X10074197Y11199197D02*
Y11300797D01*
X10175797D01*
Y11199197D01*
X10074197D01*
X9999197Y11049197D02*
Y11150797D01*
X10100797D01*
Y11049197D01*
X9999197D01*
X9924197Y10899197D02*
Y11000797D01*
X10025797D01*
Y10899197D01*
X9924197D01*
X10299197Y11349197D02*
Y11450797D01*
X10400797D01*
Y11349197D01*
X10299197D01*
X10149197Y9549197D02*
Y9650797D01*
X10250797D01*
Y9549197D01*
X10149197D01*
X10224197Y11199197D02*
Y11300797D01*
X10325797D01*
Y11199197D01*
X10224197D01*
X9924197Y10299197D02*
Y10400797D01*
X10025797D01*
Y10299197D01*
X9924197D01*
X12399196Y11349197D02*
Y11450797D01*
X12500796D01*
Y11349197D01*
X12399196D01*
X10519200Y9991700D02*
Y10093300D01*
X10620800D01*
Y9991700D01*
X10519200D01*
X10641700Y10069200D02*
Y10170800D01*
X10743300D01*
Y10069200D01*
X10641700D01*
X10851700Y7909200D02*
Y8010800D01*
X10953300D01*
Y7909200D01*
X10851700D01*
X11456700Y10684200D02*
Y10785800D01*
X11558300D01*
Y10684200D01*
X11456700D01*
X10109200Y9881700D02*
Y9983300D01*
X10210800D01*
Y9881700D01*
X10109200D01*
X10096700Y9441700D02*
Y9543300D01*
X10198300D01*
Y9441700D01*
X10096700D01*
X10516700Y9639200D02*
Y9740800D01*
X10618300D01*
Y9639200D01*
X10516700D01*
X10991700Y9331700D02*
Y9433300D01*
X11093300D01*
Y9331700D01*
X10991700D01*
X10889200Y8754200D02*
Y8855800D01*
X10990800D01*
Y8754200D01*
X10889200D01*
X10616700Y8649200D02*
Y8750800D01*
X10718300D01*
Y8649200D01*
X10616700D01*
X10209200Y8501700D02*
Y8603300D01*
X10310800D01*
Y8501700D01*
X10209200D01*
X10214200Y7644200D02*
Y7745800D01*
X10315800D01*
Y7644200D01*
X10214200D01*
X10294200Y7439200D02*
Y7540800D01*
X10395800D01*
Y7439200D01*
X10294200D01*
X10574200Y8434200D02*
Y8535800D01*
X10675800D01*
Y8434200D01*
X10574200D01*
X10769200D02*
Y8535800D01*
X10870800D01*
Y8434200D01*
X10769200D01*
X12204200Y7516700D02*
Y7618300D01*
X12305800D01*
Y7516700D01*
X12204200D01*
X12496700Y7364200D02*
Y7465800D01*
X12598300D01*
Y7364200D01*
X12496700D01*
X12729200Y8029200D02*
Y8130800D01*
X12830800D01*
Y8029200D01*
X12729200D01*
X12349200Y8186700D02*
Y8288300D01*
X12450800D01*
Y8186700D01*
X12349200D01*
X12226700Y9056700D02*
Y9158300D01*
X12328300D01*
Y9056700D01*
X12226700D01*
X12061700Y8569200D02*
Y8670800D01*
X12163300D01*
Y8569200D01*
X12061700D01*
X11881700Y9001700D02*
Y9103300D01*
X11983300D01*
Y9001700D01*
X11881700D01*
X11471700Y9336700D02*
Y9438300D01*
X11573300D01*
Y9336700D01*
X11471700D01*
X11894200Y9106700D02*
Y9208300D01*
X11995800D01*
Y9106700D01*
X11894200D01*
X13036700Y9681700D02*
Y9783300D01*
X13138300D01*
Y9681700D01*
X13036700D01*
X11396700Y11191700D02*
Y11293300D01*
X11498300D01*
Y11191700D01*
X11396700D01*
X11359200Y10449200D02*
Y10550800D01*
X11460800D01*
Y10449200D01*
X11359200D01*
X11249200Y10309200D02*
Y10410800D01*
X11350800D01*
Y10309200D01*
X11249200D01*
X11159200Y10141700D02*
Y10243300D01*
X11260800D01*
Y10141700D01*
X11159200D01*
X11174200Y10721700D02*
Y10823300D01*
X11275800D01*
Y10721700D01*
X11174200D01*
X10804200Y10431700D02*
Y10533300D01*
X10905800D01*
Y10431700D01*
X10804200D01*
X10739200Y10256700D02*
Y10358300D01*
X10840800D01*
Y10256700D01*
X10739200D01*
X9814200Y8799200D02*
Y8900800D01*
X9915800D01*
Y8799200D01*
X9814200D01*
X13046700Y8616700D02*
Y8718300D01*
X13148300D01*
Y8616700D01*
X13046700D01*
X13024200Y7379200D02*
Y7480800D01*
X13125800D01*
Y7379200D01*
X13024200D01*
X12746700Y7081700D02*
Y7183300D01*
X12848300D01*
Y7081700D01*
X12746700D01*
X9759200Y7394200D02*
Y7495800D01*
X9860800D01*
Y7394200D01*
X9759200D01*
X10114200Y7074200D02*
Y7175800D01*
X10215800D01*
Y7074200D01*
X10114200D01*
X10664200Y7394200D02*
Y7495800D01*
X10765800D01*
Y7394200D01*
X10664200D01*
X9759200Y7581700D02*
Y7683300D01*
X9860800D01*
Y7581700D01*
X9759200D01*
X11204200Y7514200D02*
Y7615800D01*
X11305800D01*
Y7514200D01*
X11204200D01*
X9911700Y8279200D02*
Y8380800D01*
X10013300D01*
Y8279200D01*
X9911700D01*
Y8156700D02*
Y8258300D01*
X10013300D01*
Y8156700D01*
X9911700D01*
X12051700Y7264200D02*
Y7365800D01*
X12153300D01*
Y7264200D01*
X12051700D01*
X10411700Y7754200D02*
Y7855800D01*
X10513300D01*
Y7754200D01*
X10411700D01*
X10266700Y7736700D02*
Y7838300D01*
X10368300D01*
Y7736700D01*
X10266700D01*
X11034200Y7654200D02*
Y7755800D01*
X11135800D01*
Y7654200D01*
X11034200D01*
X9896700Y8919200D02*
Y9020800D01*
X9998300D01*
Y8919200D01*
X9896700D01*
X11634200Y7719200D02*
Y7820800D01*
X11735800D01*
Y7719200D01*
X11634200D01*
X9911700Y8031700D02*
Y8133300D01*
X10013300D01*
Y8031700D01*
X9911700D01*
X10604200Y10221699D02*
Y10323299D01*
X10705800D01*
Y10221699D01*
X10604200D01*
X11539200Y7806700D02*
Y7908300D01*
X11640800D01*
Y7806700D01*
X11539200D01*
D95*
X11000800Y11033000D02*
G03*
X11000800Y11033000I-50800J0D01*
G01*
X11865800D02*
G03*
X11865800Y11033000I-50800J0D01*
G01*
X9953300Y11327500D02*
G03*
X9953300Y11327500I-50800J0D01*
G01*
X13053300Y7227500D02*
G03*
X13053300Y7227500I-50800J0D01*
G01*
X9953300D02*
G03*
X9953300Y7227500I-50800J0D01*
G01*
X13053300Y11327500D02*
G03*
X13053300Y11327500I-50800J0D01*
G01*
D96*
X9932980D02*
G03*
X9932980Y11327500I-30480J0D01*
G01*
X13032980Y7227500D02*
G03*
X13032980Y7227500I-30480J0D01*
G01*
X9932980D02*
G03*
X9932980Y7227500I-30480J0D01*
G01*
X13032980Y11327500D02*
G03*
X13032980Y11327500I-30480J0D01*
G01*
%TF.MD5,68489f8b312878e4b5b1aace918f8316*%
M02*
