%TF.GenerationSoftware,Altium Limited,Altium Designer,26.2.0 (7)*%
G04 Layer_Color=16711935*
%FSLAX45Y45*%
%MOMM*%
%TF.SameCoordinates,0EF2FD25-9F0B-49EC-8662-A35640DF5B91*%
%TF.FilePolarity,Negative*%
%TF.FileFunction,Soldermask,Bot*%
%TF.Part,Single*%
G01*
G75*
%TA.AperFunction,ComponentPad*%
%ADD28C,1.00000*%
%ADD30C,0.65000*%
G04:AMPARAMS|DCode=32|XSize=0.9mm|YSize=2.4mm|CornerRadius=0.45mm|HoleSize=0mm|Usage=FLASHONLY|Rotation=180.000|XOffset=0mm|YOffset=0mm|HoleType=Round|Shape=RoundedRectangle|*
%AMROUNDEDRECTD32*
21,1,0.90000,1.50000,0,0,180.0*
21,1,0.00000,2.40000,0,0,180.0*
1,1,0.90000,0.00000,0.75000*
1,1,0.90000,0.00000,0.75000*
1,1,0.90000,0.00000,-0.75000*
1,1,0.90000,0.00000,-0.75000*
%
%ADD32ROUNDEDRECTD32*%
G04:AMPARAMS|DCode=33|XSize=0.9mm|YSize=1.7mm|CornerRadius=0.45mm|HoleSize=0mm|Usage=FLASHONLY|Rotation=180.000|XOffset=0mm|YOffset=0mm|HoleType=Round|Shape=RoundedRectangle|*
%AMROUNDEDRECTD33*
21,1,0.90000,0.80000,0,0,180.0*
21,1,0.00000,1.70000,0,0,180.0*
1,1,0.90000,0.00000,0.40000*
1,1,0.90000,0.00000,0.40000*
1,1,0.90000,0.00000,-0.40000*
1,1,0.90000,0.00000,-0.40000*
%
%ADD33ROUNDEDRECTD33*%
%TA.AperFunction,SMDPad,CuDef*%
%ADD37R,1.45000X0.40000*%
%ADD39R,0.60000X1.20000*%
%ADD44R,1.15000X1.22000*%
%ADD53R,1.20320X0.80320*%
%ADD56R,0.80320X1.20320*%
%TA.AperFunction,ComponentPad*%
%ADD63C,1.70320*%
%ADD64C,4.20320*%
%ADD65R,4.20320X4.20320*%
%ADD66C,2.20320*%
%ADD67R,1.70320X1.70320*%
G04:AMPARAMS|DCode=68|XSize=1.7232mm|YSize=1.7232mm|CornerRadius=0.4816mm|HoleSize=0mm|Usage=FLASHONLY|Rotation=90.000|XOffset=0mm|YOffset=0mm|HoleType=Round|Shape=RoundedRectangle|*
%AMROUNDEDRECTD68*
21,1,1.72320,0.76000,0,0,90.0*
21,1,0.76000,1.72320,0,0,90.0*
1,1,0.96320,0.38000,0.38000*
1,1,0.96320,0.38000,-0.38000*
1,1,0.96320,-0.38000,-0.38000*
1,1,0.96320,-0.38000,0.38000*
%
%ADD68ROUNDEDRECTD68*%
%ADD69C,1.72320*%
%TA.AperFunction,WasherPad*%
%ADD70R,0.20320X0.20320*%
%TA.AperFunction,ViaPad*%
%ADD71C,0.90320*%
%TA.AperFunction,SMDPad,CuDef*%
%ADD72R,0.96320X0.60820*%
%ADD73R,2.55320X2.40320*%
%ADD74R,2.00320X1.35320*%
%ADD75R,1.40320X1.60320*%
%ADD76R,1.40320X1.72320*%
%ADD77R,1.19320X0.60820*%
%ADD78R,4.60320X1.70320*%
G36*
X11620079Y10217594D02*
X11621385Y10217335D01*
X11622646Y10216907D01*
X11623841Y10216317D01*
X11624948Y10215577D01*
X11625949Y10214699D01*
X11626827Y10213698D01*
X11627567Y10212591D01*
X11628157Y10211396D01*
X11628585Y10210135D01*
X11628844Y10208829D01*
X11628932Y10207500D01*
Y9982500D01*
X11628844Y9981171D01*
X11628585Y9979865D01*
X11628157Y9978604D01*
X11627567Y9977409D01*
X11626827Y9976302D01*
X11625949Y9975300D01*
X11624948Y9974422D01*
X11623841Y9973682D01*
X11622646Y9973093D01*
X11621385Y9972665D01*
X11620079Y9972405D01*
X11618750Y9972318D01*
X11446250D01*
X11444921Y9972405D01*
X11443614Y9972665D01*
X11442353Y9973093D01*
X11441159Y9973682D01*
X11440051Y9974422D01*
X11439050Y9975300D01*
X11438172Y9976302D01*
X11437432Y9977409D01*
X11436843Y9978604D01*
X11436415Y9979865D01*
X11436155Y9981171D01*
X11436068Y9982500D01*
Y10207500D01*
X11436155Y10208829D01*
X11436415Y10210135D01*
X11436843Y10211396D01*
X11437432Y10212591D01*
X11438172Y10213698D01*
X11439050Y10214699D01*
X11440051Y10215577D01*
X11441159Y10216317D01*
X11442353Y10216907D01*
X11443614Y10217335D01*
X11444921Y10217594D01*
X11446250Y10217682D01*
X11618750D01*
X11620079Y10217594D01*
D02*
G37*
D28*
X12402500Y8077500D02*
D03*
Y7927500D02*
D03*
Y7777500D02*
D03*
Y7327500D02*
D03*
Y7627500D02*
D03*
Y7477500D02*
D03*
Y9327501D02*
D03*
Y9177501D02*
D03*
Y9027501D02*
D03*
Y8577500D02*
D03*
Y8877500D02*
D03*
Y8727500D02*
D03*
D30*
X11680000Y10935000D02*
D03*
X11085000D02*
D03*
Y11070000D02*
D03*
X11680000D02*
D03*
X11595000D02*
D03*
X11510000D02*
D03*
X11425000D02*
D03*
X11340000D02*
D03*
X11255000D02*
D03*
X11170000D02*
D03*
Y10935000D02*
D03*
X11255000D02*
D03*
X11340000D02*
D03*
X11425000D02*
D03*
X11510000D02*
D03*
X11595000D02*
D03*
D32*
X10950000Y11033000D02*
D03*
X11815000D02*
D03*
D33*
X10950000Y11371000D02*
D03*
X11815000D02*
D03*
D37*
X11187500Y8680000D02*
D03*
Y8030000D02*
D03*
Y7965000D02*
D03*
Y8160000D02*
D03*
Y8550000D02*
D03*
Y8225000D02*
D03*
Y8615000D02*
D03*
Y8485000D02*
D03*
Y8095000D02*
D03*
X11867500Y8615000D02*
D03*
Y8680000D02*
D03*
Y8355000D02*
D03*
Y8420000D02*
D03*
Y8550000D02*
D03*
Y8485000D02*
D03*
Y8160000D02*
D03*
Y8095000D02*
D03*
X11187500Y8290000D02*
D03*
Y8420000D02*
D03*
Y8355000D02*
D03*
X11867500Y7965000D02*
D03*
Y8030000D02*
D03*
Y8225000D02*
D03*
Y8290000D02*
D03*
D39*
X11019999Y8945000D02*
D03*
Y9185000D02*
D03*
X10924999D02*
D03*
X10829999D02*
D03*
Y8945000D02*
D03*
D44*
X10360000Y9435000D02*
D03*
X10670000D02*
D03*
D53*
X12590000Y8732500D02*
D03*
Y8872500D02*
D03*
X10917500Y8360000D02*
D03*
Y8220000D02*
D03*
X10522500Y7462500D02*
D03*
Y7602500D02*
D03*
D56*
X11392500Y8840000D02*
D03*
X10785000Y7602500D02*
D03*
X10832500Y9817500D02*
D03*
X11532500Y8840000D02*
D03*
X10945000Y9470000D02*
D03*
Y9330000D02*
D03*
X11100000Y11202500D02*
D03*
X11747700Y10777700D02*
D03*
X10645000Y7602500D02*
D03*
X11607700Y10777700D02*
D03*
X11240000Y11202500D02*
D03*
X10805000Y9330000D02*
D03*
Y9470000D02*
D03*
X10692500Y9817500D02*
D03*
D63*
X10325000Y10200000D02*
D03*
Y10900000D02*
D03*
X12902499Y10537500D02*
D03*
Y10283500D02*
D03*
Y10791500D02*
D03*
X11700000Y10387500D02*
D03*
D64*
X12365000Y11037500D02*
D03*
D65*
Y10437500D02*
D03*
D66*
X12300000Y9882500D02*
D03*
X11800000D02*
D03*
D67*
X11900000Y10387500D02*
D03*
D68*
X12902499Y7697500D02*
D03*
D69*
Y9729500D02*
D03*
Y8713500D02*
D03*
Y8459500D02*
D03*
Y9221500D02*
D03*
Y9475500D02*
D03*
Y9983500D02*
D03*
Y8967500D02*
D03*
Y7951500D02*
D03*
Y8205500D02*
D03*
D70*
X9902500Y11327500D02*
D03*
X13002499Y7227500D02*
D03*
X9902500D02*
D03*
X13002499Y11327500D02*
D03*
D71*
X11652500Y8012500D02*
D03*
X11010000Y8095000D02*
D03*
X10989226Y8603020D02*
D03*
X11027500Y8215000D02*
D03*
X11015000Y8710000D02*
D03*
X11017500Y8507500D02*
D03*
X11050000Y7900000D02*
D03*
X12400000Y8435000D02*
D03*
X11099997Y7499998D02*
D03*
X12599996Y11399997D02*
D03*
X12749996D02*
D03*
X9899997Y10799997D02*
D03*
X11624996Y8549997D02*
D03*
X10949997Y10799997D02*
D03*
X10424997Y8249997D02*
D03*
X9899997Y10199997D02*
D03*
X10874997Y10649997D02*
D03*
X10199997Y11399997D02*
D03*
X12299996D02*
D03*
X9899997Y10499997D02*
D03*
Y11099997D02*
D03*
X12674996Y11249997D02*
D03*
X10499997Y11399997D02*
D03*
X11024996Y10649997D02*
D03*
X10424997Y11249997D02*
D03*
X9974997Y10649997D02*
D03*
X10949997Y7499998D02*
D03*
X12674996Y10949997D02*
D03*
X10049997Y10199997D02*
D03*
X10124997Y11249997D02*
D03*
X10049997Y11099997D02*
D03*
X9974997Y10949997D02*
D03*
X10349997Y11399997D02*
D03*
X10199997Y9599997D02*
D03*
X10274997Y11249997D02*
D03*
X9974997Y10349997D02*
D03*
X12449996Y11399997D02*
D03*
X10570000Y10042500D02*
D03*
X10692500Y10120000D02*
D03*
X10902500Y7960000D02*
D03*
X11507500Y10735000D02*
D03*
X10160000Y9932500D02*
D03*
X10147500Y9492500D02*
D03*
X10567500Y9690000D02*
D03*
X11042500Y9382500D02*
D03*
X10940000Y8805000D02*
D03*
X10667500Y8700000D02*
D03*
X10260000Y8552500D02*
D03*
X10265000Y7695000D02*
D03*
X10345000Y7490000D02*
D03*
X10625000Y8485000D02*
D03*
X10820000D02*
D03*
X12255000Y7567500D02*
D03*
X12547500Y7415000D02*
D03*
X12780000Y8080000D02*
D03*
X12400000Y8237500D02*
D03*
X12277500Y9107500D02*
D03*
X12112500Y8620000D02*
D03*
X11932500Y9052500D02*
D03*
X11522500Y9387500D02*
D03*
X11945000Y9157500D02*
D03*
X13087500Y9732500D02*
D03*
X11447500Y11242500D02*
D03*
X11410000Y10500000D02*
D03*
X11300000Y10360000D02*
D03*
X11210000Y10192500D02*
D03*
X11225000Y10772500D02*
D03*
X10855000Y10482500D02*
D03*
X10790000Y10307500D02*
D03*
X9865000Y8850000D02*
D03*
X13097501Y8667500D02*
D03*
X13075000Y7430000D02*
D03*
X12797500Y7132500D02*
D03*
X9810000Y7445000D02*
D03*
X10165000Y7125000D02*
D03*
X10715000Y7445000D02*
D03*
X9810000Y7632500D02*
D03*
X11255000Y7565000D02*
D03*
X9962500Y8330000D02*
D03*
Y8207500D02*
D03*
X12102500Y7315000D02*
D03*
X10462500Y7805000D02*
D03*
X10317500Y7787500D02*
D03*
X11085000Y7705000D02*
D03*
X9947500Y8970000D02*
D03*
X11685000Y7770000D02*
D03*
X9962500Y8082500D02*
D03*
X10655000Y10272499D02*
D03*
X11590000Y7857500D02*
D03*
D72*
X11629500Y10192500D02*
D03*
Y10127500D02*
D03*
Y10062500D02*
D03*
Y9997500D02*
D03*
D73*
X11732500Y9208500D02*
D03*
X10700000Y8300000D02*
D03*
Y7988000D02*
D03*
X11732500Y8896500D02*
D03*
D74*
X11200000Y9065000D02*
D03*
Y9355000D02*
D03*
D75*
X10877500Y9980000D02*
D03*
X10707500D02*
D03*
D76*
X10828500Y8705000D02*
D03*
X10396500D02*
D03*
D77*
X11332500Y9997500D02*
D03*
Y10062500D02*
D03*
Y10127500D02*
D03*
Y10192500D02*
D03*
D78*
X10505000Y8915000D02*
D03*
Y9220000D02*
D03*
%TF.MD5,61201508b2b7cf9296a6de288b3a8cd3*%
M02*
