%TF.GenerationSoftware,Altium Limited,Altium Designer,26.2.0 (7)*%
G04 Layer_Color=0*
%FSLAX45Y45*%
%MOMM*%
%TF.SameCoordinates,1220A514-1184-4156-BF0E-9310A74DF62C*%
%TF.FilePolarity,Positive*%
%TF.FileFunction,Plated,1,4,PTH,Drill*%
%TF.Part,Single*%
G01*
G75*
%TA.AperFunction,ComponentDrill*%
%ADD84C,1.00000*%
%ADD85C,3.00000*%
%ADD86C,1.50000*%
%ADD87C,0.70000*%
%ADD88C,1.10000*%
%ADD89C,1.02000*%
%ADD90C,0.40000*%
%ADD91O,0.60000X2.10000*%
%ADD92O,0.60000X1.40000*%
%TA.AperFunction,ViaDrill,NotFilled*%
%ADD93C,0.40000*%
D84*
X10325000Y10200000D02*
D03*
Y10900000D02*
D03*
X11900000Y10387500D02*
D03*
X11700000D02*
D03*
D85*
X12365000Y11037500D02*
D03*
Y10437500D02*
D03*
D86*
X12300000Y9882500D02*
D03*
X11800000D02*
D03*
D87*
X12402500Y8077500D02*
D03*
Y7927500D02*
D03*
Y7777500D02*
D03*
Y7327500D02*
D03*
Y7627500D02*
D03*
Y7477500D02*
D03*
Y9327501D02*
D03*
Y9177501D02*
D03*
Y9027501D02*
D03*
Y8577500D02*
D03*
Y8877500D02*
D03*
Y8727500D02*
D03*
D88*
X12902499Y10537500D02*
D03*
Y10283500D02*
D03*
Y10791500D02*
D03*
D89*
Y7697500D02*
D03*
Y9729500D02*
D03*
Y8713500D02*
D03*
Y8459500D02*
D03*
Y9221500D02*
D03*
Y9475500D02*
D03*
Y9983500D02*
D03*
Y8967500D02*
D03*
Y7951500D02*
D03*
Y8205500D02*
D03*
D90*
X11680000Y10935000D02*
D03*
X11085000D02*
D03*
Y11070000D02*
D03*
X11680000D02*
D03*
X11595000D02*
D03*
X11510000D02*
D03*
X11425000D02*
D03*
X11340000D02*
D03*
X11255000D02*
D03*
X11170000D02*
D03*
Y10935000D02*
D03*
X11255000D02*
D03*
X11340000D02*
D03*
X11425000D02*
D03*
X11510000D02*
D03*
X11595000D02*
D03*
D91*
X10950000Y11033000D02*
D03*
X11815000D02*
D03*
D92*
X10950000Y11371000D02*
D03*
X11815000D02*
D03*
D93*
X11857500Y10005000D02*
D03*
X11757500D02*
D03*
Y10105000D02*
D03*
X11535000Y9855000D02*
D03*
X11635000D02*
D03*
X11652500Y8012500D02*
D03*
X11010000Y8095000D02*
D03*
X10989226Y8603020D02*
D03*
X11027500Y8215000D02*
D03*
X11015000Y8710000D02*
D03*
X11017500Y8507500D02*
D03*
X11050000Y7900000D02*
D03*
X12400000Y8435000D02*
D03*
X11099997Y7499998D02*
D03*
X12599996Y11399997D02*
D03*
X12749996D02*
D03*
X9899997Y10799997D02*
D03*
X11624996Y8549997D02*
D03*
X10949997Y10799997D02*
D03*
X10424997Y8249997D02*
D03*
X9899997Y10199997D02*
D03*
X10874997Y10649997D02*
D03*
X10199997Y11399997D02*
D03*
X12299996D02*
D03*
X9899997Y10499997D02*
D03*
Y11099997D02*
D03*
X12674996Y11249997D02*
D03*
X10499997Y11399997D02*
D03*
X11024996Y10649997D02*
D03*
X10424997Y11249997D02*
D03*
X9974997Y10649997D02*
D03*
X10949997Y7499998D02*
D03*
X12674996Y10949997D02*
D03*
X10049997Y10199997D02*
D03*
X10124997Y11249997D02*
D03*
X10049997Y11099997D02*
D03*
X9974997Y10949997D02*
D03*
X10349997Y11399997D02*
D03*
X10199997Y9599997D02*
D03*
X10274997Y11249997D02*
D03*
X9974997Y10349997D02*
D03*
X12449996Y11399997D02*
D03*
X10570000Y10042500D02*
D03*
X10692500Y10120000D02*
D03*
X10902500Y7960000D02*
D03*
X11507500Y10735000D02*
D03*
X10160000Y9932500D02*
D03*
X10147500Y9492500D02*
D03*
X10567500Y9690000D02*
D03*
X11042500Y9382500D02*
D03*
X10940000Y8805000D02*
D03*
X10667500Y8700000D02*
D03*
X10260000Y8552500D02*
D03*
X10265000Y7695000D02*
D03*
X10345000Y7490000D02*
D03*
X10625000Y8485000D02*
D03*
X10820000D02*
D03*
X12255000Y7567500D02*
D03*
X12547500Y7415000D02*
D03*
X12780000Y8080000D02*
D03*
X12400000Y8237500D02*
D03*
X12277500Y9107500D02*
D03*
X12112500Y8620000D02*
D03*
X11932500Y9052500D02*
D03*
X11522500Y9387500D02*
D03*
X11945000Y9157500D02*
D03*
X13087500Y9732500D02*
D03*
X11447500Y11242500D02*
D03*
X11410000Y10500000D02*
D03*
X11300000Y10360000D02*
D03*
X11210000Y10192500D02*
D03*
X11225000Y10772500D02*
D03*
X10855000Y10482500D02*
D03*
X10790000Y10307500D02*
D03*
X9865000Y8850000D02*
D03*
X13097501Y8667500D02*
D03*
X13075000Y7430000D02*
D03*
X12797500Y7132500D02*
D03*
X9810000Y7445000D02*
D03*
X10165000Y7125000D02*
D03*
X10715000Y7445000D02*
D03*
X9810000Y7632500D02*
D03*
X11255000Y7565000D02*
D03*
X9962500Y8330000D02*
D03*
Y8207500D02*
D03*
X12102500Y7315000D02*
D03*
X10462500Y7805000D02*
D03*
X10317500Y7787500D02*
D03*
X11085000Y7705000D02*
D03*
X9947500Y8970000D02*
D03*
X11685000Y7770000D02*
D03*
X9962500Y8082500D02*
D03*
X10655000Y10272499D02*
D03*
X11590000Y7857500D02*
D03*
%TF.MD5,99ced764394a7098c8cead8a0ea5c393*%
M02*
