%TF.GenerationSoftware,Altium Limited,Altium Designer,26.2.0 (7)*%
G04 Layer_Physical_Order=1*
G04 Layer_Color=255*
%FSLAX45Y45*%
%MOMM*%
%TF.SameCoordinates,1220A514-1184-4156-BF0E-9310A74DF62C*%
%TF.FilePolarity,Positive*%
%TF.FileFunction,Copper,L1,Top,Signal*%
%TF.Part,Single*%
G01*
G75*
%TA.AperFunction,SMDPad,CuDef*%
%ADD10R,1.00000X0.60000*%
%TA.AperFunction,ConnectorPad*%
%ADD11R,1.20000X1.00000*%
%TA.AperFunction,SMDPad,CuDef*%
%ADD12R,0.80000X0.80000*%
%ADD13R,0.60000X1.00000*%
%ADD14R,1.60000X0.90000*%
%ADD15R,0.90000X0.80000*%
%TA.AperFunction,ConnectorPad*%
%ADD16R,1.00000X1.20000*%
%TA.AperFunction,SMDPad,CuDef*%
%ADD17R,3.80000X3.80000*%
%ADD18R,0.60000X0.55000*%
G04:AMPARAMS|DCode=19|XSize=0.6mm|YSize=1mm|CornerRadius=0mm|HoleSize=0mm|Usage=FLASHONLY|Rotation=225.000|XOffset=0mm|YOffset=0mm|HoleType=Round|Shape=Rectangle|*
%AMROTATEDRECTD19*
4,1,4,-0.14142,0.56569,0.56569,-0.14142,0.14142,-0.56569,-0.56569,0.14142,-0.14142,0.56569,0.0*
%
%ADD19ROTATEDRECTD19*%

%ADD20R,1.22000X1.15000*%
%TA.AperFunction,Conductor*%
%ADD21C,0.30000*%
%ADD22C,0.20000*%
%TA.AperFunction,ComponentPad*%
%ADD23C,1.50000*%
%ADD24C,4.00000*%
%ADD25R,4.00000X4.00000*%
%ADD26C,2.00000*%
%ADD27R,1.50000X1.50000*%
%ADD28C,1.00000*%
G04:AMPARAMS|DCode=29|XSize=1.52mm|YSize=1.52mm|CornerRadius=0.38mm|HoleSize=0mm|Usage=FLASHONLY|Rotation=90.000|XOffset=0mm|YOffset=0mm|HoleType=Round|Shape=RoundedRectangle|*
%AMROUNDEDRECTD29*
21,1,1.52000,0.76000,0,0,90.0*
21,1,0.76000,1.52000,0,0,90.0*
1,1,0.76000,0.38000,0.38000*
1,1,0.76000,0.38000,-0.38000*
1,1,0.76000,-0.38000,-0.38000*
1,1,0.76000,-0.38000,0.38000*
%
%ADD29ROUNDEDRECTD29*%
%ADD30C,0.65000*%
%ADD31C,1.52000*%
G04:AMPARAMS|DCode=32|XSize=0.9mm|YSize=2.4mm|CornerRadius=0.45mm|HoleSize=0mm|Usage=FLASHONLY|Rotation=180.000|XOffset=0mm|YOffset=0mm|HoleType=Round|Shape=RoundedRectangle|*
%AMROUNDEDRECTD32*
21,1,0.90000,1.50000,0,0,180.0*
21,1,0.00000,2.40000,0,0,180.0*
1,1,0.90000,0.00000,0.75000*
1,1,0.90000,0.00000,0.75000*
1,1,0.90000,0.00000,-0.75000*
1,1,0.90000,0.00000,-0.75000*
%
%ADD32ROUNDEDRECTD32*%
G04:AMPARAMS|DCode=33|XSize=0.9mm|YSize=1.7mm|CornerRadius=0.45mm|HoleSize=0mm|Usage=FLASHONLY|Rotation=180.000|XOffset=0mm|YOffset=0mm|HoleType=Round|Shape=RoundedRectangle|*
%AMROUNDEDRECTD33*
21,1,0.90000,0.80000,0,0,180.0*
21,1,0.00000,1.70000,0,0,180.0*
1,1,0.90000,0.00000,0.40000*
1,1,0.90000,0.00000,0.40000*
1,1,0.90000,0.00000,-0.40000*
1,1,0.90000,0.00000,-0.40000*
%
%ADD33ROUNDEDRECTD33*%
%TA.AperFunction,ViaPad*%
%ADD34C,0.70000*%
G36*
X13176604Y7053396D02*
X12631750D01*
X12625683Y7073396D01*
X12627734Y7074766D01*
X13087733Y7534766D01*
X13095470Y7546344D01*
X13098186Y7560000D01*
Y8299500D01*
X13095470Y8313156D01*
X13087733Y8324733D01*
X12991249Y8421218D01*
X12991959Y8422445D01*
X12998500Y8446861D01*
Y8472138D01*
X12991959Y8496554D01*
X12979318Y8518445D01*
X12961446Y8536319D01*
X12939555Y8548957D01*
X12915138Y8555500D01*
X12889861D01*
X12865445Y8548957D01*
X12854346Y8542548D01*
X12849159Y8547733D01*
X12837582Y8555469D01*
X12823926Y8558186D01*
X12750000D01*
Y8572500D01*
X12610000D01*
Y8472500D01*
X12750000D01*
Y8486814D01*
X12789727D01*
X12806500Y8472138D01*
Y8446861D01*
X12813042Y8422445D01*
X12825681Y8400554D01*
X12843555Y8382681D01*
X12865445Y8370042D01*
X12889861Y8363500D01*
X12915138D01*
X12939555Y8370042D01*
X12940782Y8370751D01*
X13026814Y8284718D01*
Y7574781D01*
X12587719Y7135686D01*
X10557282D01*
X10081345Y7611623D01*
X10088998Y7630101D01*
X10218500D01*
Y7757101D01*
Y7884101D01*
Y8011101D01*
Y8138101D01*
Y8265101D01*
Y8392101D01*
Y8519101D01*
Y8646101D01*
Y8773101D01*
Y8900101D01*
Y9027101D01*
Y9092684D01*
X10220870D01*
X10234526Y9095401D01*
X10246103Y9103136D01*
X10567281Y9424314D01*
X11273831D01*
X11292500Y9421100D01*
Y9281101D01*
Y9154101D01*
Y9027101D01*
Y8900101D01*
Y8745686D01*
X11057096D01*
X11046155Y8756627D01*
X11025940Y8765000D01*
X11004060D01*
X10983845Y8756627D01*
X10968374Y8741155D01*
X10960000Y8720940D01*
Y8699060D01*
X10968374Y8678845D01*
X10970722Y8676497D01*
X10966003Y8652932D01*
X10958071Y8649646D01*
X10942599Y8634175D01*
X10934226Y8613960D01*
Y8592080D01*
X10942599Y8571865D01*
X10958071Y8556393D01*
X10959666Y8555732D01*
X10970873Y8538655D01*
X10968199Y8532198D01*
X10962500Y8518440D01*
Y8496560D01*
X10970873Y8476345D01*
X10952500Y8457972D01*
Y8415500D01*
Y7905000D01*
Y7840686D01*
X10504596D01*
X10493655Y7851626D01*
X10473440Y7860000D01*
X10451560D01*
X10431345Y7851626D01*
X10415874Y7836155D01*
X10407500Y7815940D01*
Y7794060D01*
X10415874Y7773845D01*
X10417235Y7772484D01*
X10416850Y7759345D01*
X10411351Y7750083D01*
X10405277Y7750191D01*
X10372500Y7782967D01*
Y7798440D01*
X10364127Y7818655D01*
X10348655Y7834127D01*
X10328440Y7842500D01*
X10306560D01*
X10286345Y7834127D01*
X10270874Y7818655D01*
X10262500Y7798440D01*
Y7776560D01*
X10270874Y7756345D01*
X10286345Y7740874D01*
X10306560Y7732500D01*
X10322033D01*
X10374766Y7679766D01*
X10386344Y7672031D01*
X10400000Y7669314D01*
X11042904D01*
X11053845Y7658374D01*
X11074060Y7650000D01*
X11095940D01*
X11116155Y7658374D01*
X11131626Y7673845D01*
X11140000Y7694060D01*
Y7715940D01*
X11134478Y7729270D01*
X11151433Y7740599D01*
X11219314Y7672718D01*
Y7607096D01*
X11208374Y7596155D01*
X11200000Y7575940D01*
Y7554060D01*
X11208374Y7533845D01*
X11223845Y7518374D01*
X11244060Y7510000D01*
X11265940D01*
X11286155Y7518374D01*
X11293891Y7526109D01*
X11475000Y7345000D01*
Y7317500D01*
X12031522D01*
X12033236Y7311756D01*
X12017993Y7292900D01*
X11997700D01*
Y7240200D01*
X12050400D01*
Y7261034D01*
X12070400Y7269319D01*
X12071345Y7268374D01*
X12091560Y7260000D01*
X12113440D01*
X12133655Y7268374D01*
X12149127Y7283845D01*
X12157500Y7304060D01*
Y7319533D01*
X12279782Y7441814D01*
X12342275D01*
X12346486Y7434519D01*
X12359519Y7421486D01*
X12374104Y7413066D01*
X12375481Y7405601D01*
Y7399399D01*
X12374104Y7391934D01*
X12359519Y7383514D01*
X12346486Y7370481D01*
X12337271Y7354519D01*
X12332500Y7336716D01*
Y7318284D01*
X12337271Y7300481D01*
X12346486Y7284519D01*
X12359519Y7271486D01*
X12375481Y7262270D01*
X12393285Y7257500D01*
X12411716D01*
X12429519Y7262270D01*
X12445481Y7271486D01*
X12458514Y7284519D01*
X12467730Y7300481D01*
X12472500Y7318284D01*
Y7336716D01*
X12467730Y7354519D01*
X12458514Y7370481D01*
X12445481Y7383514D01*
X12430897Y7391934D01*
X12429519Y7399399D01*
Y7405601D01*
X12430897Y7413066D01*
X12445481Y7421486D01*
X12458514Y7434519D01*
X12467730Y7450481D01*
X12472500Y7468285D01*
Y7486716D01*
X12470320Y7494852D01*
X12539782Y7564314D01*
X12617500D01*
Y7550000D01*
X12757500D01*
Y7650000D01*
X12723186D01*
Y8217500D01*
X12720469Y8231157D01*
X12712734Y8242734D01*
X12590234Y8365234D01*
X12578656Y8372969D01*
X12565000Y8375686D01*
X12327281D01*
X12263186Y8439781D01*
Y8647719D01*
X12307282Y8691815D01*
X12342275D01*
X12346486Y8684520D01*
X12359519Y8671487D01*
X12374104Y8663066D01*
X12375481Y8655601D01*
Y8649400D01*
X12374104Y8641934D01*
X12359519Y8633514D01*
X12346486Y8620481D01*
X12337271Y8604519D01*
X12332500Y8586716D01*
Y8568285D01*
X12337271Y8550481D01*
X12346486Y8534519D01*
X12359519Y8521486D01*
X12375481Y8512271D01*
X12393285Y8507500D01*
X12411716D01*
X12429519Y8512271D01*
X12445481Y8521486D01*
X12458514Y8534519D01*
X12467730Y8550481D01*
X12472500Y8568285D01*
Y8586716D01*
X12467730Y8604519D01*
X12458514Y8620481D01*
X12445481Y8633514D01*
X12430897Y8641934D01*
X12429519Y8649400D01*
Y8655601D01*
X12430897Y8663066D01*
X12445481Y8671487D01*
X12458514Y8684520D01*
X12462726Y8691815D01*
X12547499D01*
X12547500Y8691814D01*
X12561156Y8694531D01*
X12572734Y8702267D01*
X12594973Y8724506D01*
X12610000Y8711249D01*
Y8612500D01*
X12750000D01*
Y8712500D01*
X12715686D01*
Y8752500D01*
X12750000D01*
Y8766814D01*
X12770000D01*
X12783656Y8769531D01*
X12795234Y8777266D01*
X12811913Y8793946D01*
X12817738Y8792787D01*
X12825203Y8773670D01*
X12824837Y8770983D01*
X12813042Y8750554D01*
X12806500Y8726138D01*
Y8700861D01*
X12813042Y8676445D01*
X12825681Y8654554D01*
X12843555Y8636681D01*
X12865445Y8624042D01*
X12889861Y8617500D01*
X12915138D01*
X12939555Y8624042D01*
X12961446Y8636681D01*
X12979318Y8654554D01*
X12991959Y8676445D01*
X12998500Y8700861D01*
Y8726138D01*
X12991959Y8750554D01*
X12979318Y8772445D01*
X12966956Y8784809D01*
X12971227Y8804491D01*
X12972475Y8806298D01*
X12976157Y8807031D01*
X12987733Y8814766D01*
X13060234Y8887266D01*
X13067969Y8898844D01*
X13070686Y8912500D01*
Y9597000D01*
X13067969Y9610656D01*
X13060234Y9622234D01*
X12991249Y9691218D01*
X12991959Y9692446D01*
X12998500Y9716862D01*
Y9742139D01*
X12991959Y9766555D01*
X12991249Y9767782D01*
X13090234Y9866767D01*
X13097969Y9878344D01*
X13100687Y9892000D01*
Y10121000D01*
X13097969Y10134656D01*
X13090234Y10146234D01*
X12990517Y10245951D01*
X12991026Y10246832D01*
X12997501Y10270993D01*
Y10296007D01*
X12991026Y10320169D01*
X12978519Y10341831D01*
X12960831Y10359519D01*
X12939168Y10372026D01*
X12915007Y10378500D01*
X12889993D01*
X12865833Y10372026D01*
X12849963Y10362864D01*
X12838582Y10370469D01*
X12824927Y10373186D01*
X12755000D01*
Y10387500D01*
X12615392D01*
X12615000Y10387500D01*
X12595392Y10388445D01*
Y10408118D01*
X12609600Y10422100D01*
X12615392Y10422100D01*
X12672300D01*
Y10477500D01*
Y10532900D01*
X12615392D01*
X12609600Y10532900D01*
X12595392Y10546882D01*
Y10652500D01*
X12593840Y10660304D01*
X12589419Y10666919D01*
X12582804Y10671340D01*
X12575000Y10672892D01*
X12005001D01*
X12005000Y10672892D01*
X11997196Y10671340D01*
X11990581Y10666919D01*
X11990580Y10666918D01*
X11806161Y10482500D01*
X11805000D01*
Y10481339D01*
X11798081Y10474419D01*
X11793660Y10467804D01*
X11792108Y10460000D01*
Y10456776D01*
X11788383Y10454242D01*
X11772108Y10449742D01*
X11758331Y10463519D01*
X11736668Y10476026D01*
X11712507Y10482500D01*
X11687493D01*
X11663332Y10476026D01*
X11641669Y10463519D01*
X11623981Y10445831D01*
X11611474Y10424168D01*
X11605000Y10400007D01*
Y10374993D01*
X11611474Y10350831D01*
X11623981Y10329169D01*
X11641669Y10311481D01*
X11663332Y10298974D01*
X11687493Y10292500D01*
X11712507D01*
X11736668Y10298974D01*
X11758331Y10311481D01*
X11772108Y10325258D01*
X11788383Y10320758D01*
X11792108Y10318224D01*
Y10267506D01*
X11789244Y10263583D01*
X11775499Y10253545D01*
X11772638Y10252864D01*
X11772500Y10252892D01*
X11432500D01*
X11424696Y10251340D01*
X11418081Y10246919D01*
X11413660Y10240304D01*
X11412108Y10232500D01*
Y9897500D01*
X10948185D01*
Y10174042D01*
X10992219Y10218076D01*
X11044645Y10165650D01*
X11115355Y10236360D01*
X11214350Y10335355D01*
X11161925Y10387781D01*
X11437734Y10663590D01*
X11445469Y10675167D01*
X11448186Y10688823D01*
Y10887453D01*
X11448486Y10887903D01*
X11454739Y10890493D01*
X11467500Y10903254D01*
X11480262Y10890493D01*
X11499557Y10882500D01*
X11520443D01*
X11539739Y10890493D01*
X11552500Y10903254D01*
X11565261Y10890493D01*
X11584557Y10882500D01*
X11605443D01*
X11624739Y10890493D01*
X11633682Y10899435D01*
X11647203Y10885915D01*
X11667300Y10877590D01*
Y10934999D01*
X11692700D01*
Y10877590D01*
X11712798Y10885915D01*
X11729086Y10902202D01*
X11737598Y10922752D01*
X11740451Y10923804D01*
X11757900Y10925999D01*
X11758223Y10925220D01*
X11768642Y10911642D01*
X11782220Y10901223D01*
X11798032Y10894673D01*
X11815000Y10892439D01*
X11831969Y10894673D01*
X11847781Y10901223D01*
X11861359Y10911642D01*
X11871777Y10925220D01*
X11878327Y10941031D01*
X11880561Y10958000D01*
Y11108000D01*
X11878327Y11124969D01*
X11871777Y11140780D01*
X11861359Y11154358D01*
X11847781Y11164777D01*
X11831969Y11171327D01*
X11815000Y11173561D01*
X11798032Y11171327D01*
X11782220Y11164777D01*
X11768642Y11154358D01*
X11758223Y11140780D01*
X11751673Y11124969D01*
X11749440Y11108000D01*
Y11105921D01*
X11729440Y11101943D01*
X11729086Y11102798D01*
X11712798Y11119085D01*
X11692700Y11127410D01*
Y11069999D01*
X11667300D01*
Y11127410D01*
X11650499Y11120451D01*
X11648538Y11120406D01*
X11637711Y11124250D01*
X11628885Y11129052D01*
X11627969Y11133656D01*
X11620234Y11145233D01*
X11586045Y11179422D01*
X11574468Y11187158D01*
X11560811Y11189874D01*
X11184782D01*
X11106923Y11267734D01*
X11095346Y11275469D01*
X11081689Y11278186D01*
X11016614D01*
X11006751Y11298186D01*
X11006777Y11298220D01*
X11013327Y11314032D01*
X11015561Y11331000D01*
Y11411000D01*
X11013327Y11427969D01*
X11006777Y11443781D01*
X10996358Y11457358D01*
X10982781Y11467777D01*
X10966969Y11474327D01*
X10950000Y11476561D01*
X10933032Y11474327D01*
X10917220Y11467777D01*
X10903642Y11457358D01*
X10893223Y11443781D01*
X10886673Y11427969D01*
X10884439Y11411000D01*
Y11331000D01*
X10886673Y11314032D01*
X10893223Y11298220D01*
X10893249Y11298186D01*
X10883386Y11278186D01*
X10803500D01*
Y11362500D01*
X10641500D01*
Y11207500D01*
X10761553D01*
X10765000Y11206814D01*
X11066908D01*
X11125856Y11147866D01*
X11126631Y11135420D01*
X11126370Y11134603D01*
X11104432Y11124622D01*
X11097700Y11127410D01*
Y11069999D01*
X11072300D01*
Y11127410D01*
X11052202Y11119085D01*
X11035915Y11102798D01*
X11035561Y11101943D01*
X11015561Y11105921D01*
Y11108000D01*
X11013327Y11124969D01*
X11006777Y11140780D01*
X10996358Y11154358D01*
X10982781Y11164777D01*
X10966969Y11171327D01*
X10950000Y11173561D01*
X10933032Y11171327D01*
X10917220Y11164777D01*
X10903642Y11154358D01*
X10893223Y11140780D01*
X10886673Y11124969D01*
X10884439Y11108000D01*
Y10958000D01*
X10886673Y10941031D01*
X10893223Y10925220D01*
X10903642Y10911642D01*
X10917220Y10901223D01*
X10933032Y10894673D01*
X10950000Y10892439D01*
X10966969Y10894673D01*
X10982781Y10901223D01*
X10996358Y10911642D01*
X11006777Y10925220D01*
X11007100Y10925999D01*
X11024549Y10923804D01*
X11027403Y10922752D01*
X11035915Y10902202D01*
X11052202Y10885915D01*
X11072300Y10877590D01*
Y10934999D01*
X11097700D01*
Y10877590D01*
X11117798Y10885915D01*
X11131319Y10899435D01*
X11140261Y10890493D01*
X11159557Y10882500D01*
X11180443D01*
X11199739Y10890493D01*
X11212500Y10903254D01*
X11225261Y10890493D01*
X11244557Y10882500D01*
X11265443D01*
X11284739Y10890493D01*
X11297500Y10903254D01*
X11310261Y10890493D01*
X11316515Y10887903D01*
X11316815Y10887453D01*
Y10728458D01*
X11070281Y10481924D01*
X11017856Y10534350D01*
X10947145Y10463640D01*
X10848150Y10364645D01*
X10900576Y10312219D01*
X10827266Y10238910D01*
X10819531Y10227332D01*
X10816814Y10213676D01*
Y9897500D01*
X10728186D01*
Y10077904D01*
X10739127Y10088845D01*
X10747500Y10109060D01*
Y10130940D01*
X10739127Y10151155D01*
X10723655Y10166627D01*
X10703440Y10175000D01*
X10687967D01*
X10663946Y10199022D01*
X10671464Y10219788D01*
X10686155Y10225873D01*
X10701627Y10241345D01*
X10710000Y10261559D01*
Y10283439D01*
X10701627Y10303654D01*
X10687781Y10317500D01*
X10688646Y10325026D01*
X10693912Y10337500D01*
X10730000D01*
Y10477500D01*
X10715686D01*
Y10510000D01*
X10745000D01*
Y10630000D01*
X10615000D01*
Y10510000D01*
X10644314D01*
Y10477500D01*
X10630000D01*
Y10374098D01*
X10611522Y10366444D01*
X10590000Y10387967D01*
Y10477500D01*
X10490000D01*
Y10399099D01*
X10471522Y10391445D01*
X10295234Y10567734D01*
X10283656Y10575469D01*
X10270000Y10578186D01*
X10232500D01*
Y10592500D01*
X10200686D01*
Y10940218D01*
X10294782Y11034314D01*
X10612718D01*
X10641500Y11005533D01*
Y10897500D01*
X10803500D01*
Y11052500D01*
X10695467D01*
X10652734Y11095234D01*
X10641156Y11102969D01*
X10627500Y11105686D01*
X10280000D01*
X10266344Y11102969D01*
X10254767Y11095234D01*
X10139766Y10980234D01*
X10132031Y10968656D01*
X10129314Y10955000D01*
Y10592500D01*
X10092500D01*
Y10492500D01*
X10232500D01*
Y10506814D01*
X10255219D01*
X10637500Y10124533D01*
Y10109060D01*
X10645874Y10088845D01*
X10656814Y10077904D01*
Y9897500D01*
X10590759D01*
Y9947426D01*
X10588043Y9961083D01*
X10580307Y9972660D01*
X10475234Y10077734D01*
X10463656Y10085469D01*
X10450000Y10088186D01*
X10352029D01*
X10349396Y10108186D01*
X10361669Y10111474D01*
X10383331Y10123981D01*
X10401019Y10141669D01*
X10413526Y10163331D01*
X10420000Y10187493D01*
Y10212507D01*
X10413526Y10236668D01*
X10401019Y10258331D01*
X10383331Y10276019D01*
X10361669Y10288526D01*
X10337507Y10295000D01*
X10312493D01*
X10288332Y10288526D01*
X10287451Y10288017D01*
X10229708Y10345759D01*
X10232500Y10352500D01*
X10232500D01*
Y10452500D01*
X10092500D01*
Y10352500D01*
X10144241D01*
Y10345074D01*
X10146957Y10331417D01*
X10154693Y10319840D01*
X10236983Y10237550D01*
X10236475Y10236668D01*
X10230000Y10212507D01*
Y10187493D01*
X10236475Y10163331D01*
X10248982Y10141669D01*
X10266669Y10123981D01*
X10288332Y10111474D01*
X10300604Y10108186D01*
X10297971Y10088186D01*
X10120000D01*
X10106344Y10085469D01*
X10094766Y10077734D01*
X10014767Y9997734D01*
X10007031Y9986157D01*
X10004315Y9972500D01*
Y9937500D01*
X9990000D01*
X9990000Y9797500D01*
X9971906Y9792900D01*
X9968094D01*
X9963209Y9794142D01*
X9950000Y9805936D01*
Y9937500D01*
X9850000D01*
Y9807086D01*
X9850000Y9797501D01*
X9849999D01*
X9851000Y9787499D01*
X9851000D01*
Y9692500D01*
X9865314D01*
Y9532500D01*
X9851000D01*
Y9437500D01*
X9946837Y9437500D01*
X9964600Y9432100D01*
X9968763Y9432100D01*
X10007300D01*
Y9485000D01*
Y9537900D01*
X9968763D01*
X9964600Y9537900D01*
X9956686Y9535494D01*
X9936686Y9548074D01*
Y9676926D01*
X9956686Y9689506D01*
X9964600Y9687100D01*
X9968763Y9687100D01*
X10007301D01*
Y9740000D01*
X10020001D01*
Y9752700D01*
X10075400D01*
X10075400Y9784464D01*
X10090000Y9797500D01*
X10090000Y9805936D01*
Y9937500D01*
X10075686D01*
Y9957719D01*
X10134782Y10016814D01*
X10435218D01*
X10519388Y9932645D01*
Y9920420D01*
X10513399Y9902900D01*
X10450700D01*
Y9817500D01*
Y9732100D01*
X10513400D01*
Y9737500D01*
X10654314D01*
Y9727500D01*
X10657031Y9713844D01*
X10664766Y9702267D01*
X10713847Y9653186D01*
X10705563Y9633186D01*
X10384899D01*
X10371243Y9630469D01*
X10359666Y9622734D01*
X10158266Y9421334D01*
X10158110Y9421100D01*
X10090844D01*
X10075400Y9432101D01*
X10075400Y9441100D01*
Y9472300D01*
X10032700D01*
Y9432100D01*
X10043056D01*
X10058500Y9421100D01*
X10058500Y9412100D01*
Y9281101D01*
Y9154101D01*
Y9005686D01*
X9989596D01*
X9978655Y9016627D01*
X9958440Y9025000D01*
X9936560D01*
X9916345Y9016627D01*
X9900874Y9001155D01*
X9892500Y8980940D01*
Y8959060D01*
X9900874Y8938845D01*
X9916345Y8923374D01*
X9936560Y8915000D01*
X9958440D01*
X9978655Y8923374D01*
X9989596Y8934314D01*
X10058500D01*
Y8878786D01*
X10028101D01*
X10014444Y8876070D01*
X10002867Y8868334D01*
X9784766Y8650233D01*
X9777031Y8638656D01*
X9774314Y8625000D01*
Y7674596D01*
X9763373Y7663655D01*
X9755000Y7643440D01*
Y7621560D01*
X9763373Y7601345D01*
X9778845Y7585874D01*
X9799060Y7577500D01*
X9820940D01*
X9841155Y7585874D01*
X9856626Y7601345D01*
X9865000Y7621560D01*
Y7643440D01*
X9856626Y7663655D01*
X9845686Y7674596D01*
Y7718063D01*
X9865686Y7726348D01*
X10517267Y7074766D01*
X10519317Y7073396D01*
X10513250Y7053396D01*
X9728396D01*
Y11501604D01*
X13176604D01*
Y7053396D01*
D02*
G37*
G36*
X12575000Y10650492D02*
Y10546882D01*
X12575016Y10546801D01*
X12575001Y10546719D01*
X12575793Y10542895D01*
X12576552Y10539079D01*
X12576598Y10539009D01*
X12576615Y10538928D01*
X12578797Y10535719D01*
X12580973Y10532463D01*
X12581042Y10532416D01*
X12581089Y10532348D01*
X12592500Y10521118D01*
Y10433882D01*
X12581089Y10422652D01*
X12581042Y10422583D01*
X12580973Y10422537D01*
X12578804Y10419292D01*
X12576615Y10416072D01*
X12576598Y10415991D01*
X12576552Y10415921D01*
X12575793Y10412105D01*
X12575001Y10408281D01*
X12575016Y10408199D01*
X12575000Y10408118D01*
Y10388445D01*
X12575682Y10385018D01*
X12576198Y10381558D01*
X12576455Y10381130D01*
X12576552Y10380642D01*
X12578495Y10377735D01*
X12580295Y10374737D01*
X12580695Y10374441D01*
X12580973Y10374026D01*
X12583880Y10372083D01*
X12586690Y10370003D01*
X12587174Y10369883D01*
X12587588Y10369606D01*
X12591017Y10368924D01*
X12592500Y10368554D01*
Y9887499D01*
X12427501Y9722500D01*
X11990000D01*
Y10080000D01*
X11812500Y10257500D01*
X11810687Y10259312D01*
X11810948Y10259702D01*
X11811258Y10261259D01*
X11811925Y10262698D01*
X11812026Y10265125D01*
X11812500Y10267506D01*
Y10318225D01*
X11812125Y10320112D01*
X11812140Y10322038D01*
X11811356Y10323976D01*
X11810948Y10326028D01*
X11809878Y10327629D01*
X11809156Y10329413D01*
X11807690Y10330904D01*
X11807500Y10331188D01*
Y10443812D01*
X11807690Y10444097D01*
X11809156Y10445588D01*
X11809878Y10447372D01*
X11810948Y10448972D01*
X11811356Y10451024D01*
X11812140Y10452964D01*
X11812127Y10454627D01*
X11812500Y10455000D01*
Y10460000D01*
X12005000Y10652500D01*
X12575000D01*
Y10650492D01*
D02*
G37*
G36*
X11942500Y10062500D02*
Y9817500D01*
X11847500Y9722500D01*
X11432500D01*
Y10232500D01*
X11772500D01*
X11942500Y10062500D01*
D02*
G37*
G36*
X12681814Y9242719D02*
Y9152500D01*
X12684531Y9138843D01*
X12692266Y9127266D01*
X12813751Y9005782D01*
X12813042Y9004554D01*
X12806500Y8980138D01*
Y8954861D01*
X12813042Y8930445D01*
X12825681Y8908554D01*
X12838550Y8895686D01*
X12831471Y8875686D01*
X12807500D01*
X12793844Y8872969D01*
X12782267Y8865234D01*
X12769863Y8852830D01*
X12750000Y8852500D01*
Y8852500D01*
X12610000D01*
Y8825116D01*
X12609430D01*
X12595774Y8822399D01*
X12584197Y8814664D01*
X12532719Y8763186D01*
X12462726D01*
X12458514Y8770481D01*
X12445481Y8783514D01*
X12430897Y8791934D01*
X12429519Y8799402D01*
Y8805599D01*
X12430897Y8813066D01*
X12445481Y8821487D01*
X12458514Y8834520D01*
X12467730Y8850481D01*
X12472500Y8868285D01*
Y8886716D01*
X12467730Y8904519D01*
X12458514Y8920481D01*
X12445481Y8933514D01*
X12430897Y8941935D01*
X12429519Y8949400D01*
Y8955601D01*
X12430897Y8963066D01*
X12445481Y8971487D01*
X12458514Y8984520D01*
X12467730Y9000482D01*
X12472500Y9018285D01*
Y9036716D01*
X12467730Y9054520D01*
X12458514Y9070481D01*
X12445481Y9083514D01*
X12437239Y9088273D01*
X12435944Y9092632D01*
X12437039Y9110377D01*
X12448797Y9117165D01*
X12462835Y9131204D01*
X12472762Y9148397D01*
X12477157Y9164801D01*
X12402500D01*
X12327843D01*
X12332238Y9148397D01*
X12342165Y9131204D01*
X12356204Y9117165D01*
X12367961Y9110377D01*
X12369056Y9092632D01*
X12367761Y9088273D01*
X12359519Y9083514D01*
X12346486Y9070481D01*
X12342275Y9063186D01*
X12190001D01*
X12176344Y9060470D01*
X12164767Y9052734D01*
X12117819Y9005786D01*
X11452500D01*
Y9096415D01*
X11908776D01*
X11922433Y9099131D01*
X11929995Y9104184D01*
X11934060Y9102500D01*
X11955940D01*
X11976155Y9110874D01*
X11991627Y9126345D01*
X12000000Y9146560D01*
Y9168440D01*
X11991627Y9188655D01*
X11976155Y9204127D01*
X11955940Y9212500D01*
X11934060D01*
X11913845Y9204127D01*
X11898373Y9188655D01*
X11890000Y9168440D01*
Y9167786D01*
X11452500D01*
Y9281101D01*
Y9421100D01*
X11471168Y9424314D01*
X12500219D01*
X12681814Y9242719D01*
D02*
G37*
G36*
X12359519Y8821487D02*
X12374104Y8813066D01*
X12375481Y8805599D01*
Y8799402D01*
X12374104Y8791934D01*
X12359519Y8783514D01*
X12346486Y8770481D01*
X12342275Y8763186D01*
X12292500D01*
X12278844Y8760470D01*
X12267267Y8752734D01*
X12202266Y8687734D01*
X12194531Y8676156D01*
X12191814Y8662500D01*
Y8425000D01*
X12194531Y8411344D01*
X12202266Y8399766D01*
X12287266Y8314766D01*
X12298844Y8307031D01*
X12312500Y8304314D01*
X12550218D01*
X12651814Y8202719D01*
Y7650000D01*
X12617500D01*
Y7635686D01*
X12525000D01*
X12511344Y7632969D01*
X12499766Y7625234D01*
X12492276Y7617743D01*
X12472500Y7626252D01*
Y7636716D01*
X12467730Y7654519D01*
X12458514Y7670481D01*
X12445481Y7683514D01*
X12430897Y7691934D01*
X12429519Y7699399D01*
Y7705601D01*
X12430897Y7713066D01*
X12445481Y7721486D01*
X12458514Y7734519D01*
X12467730Y7750481D01*
X12472500Y7768285D01*
Y7786716D01*
X12467730Y7804519D01*
X12458514Y7820481D01*
X12445481Y7833514D01*
X12437239Y7838273D01*
X12435944Y7842632D01*
X12437039Y7860377D01*
X12448797Y7867165D01*
X12462835Y7881204D01*
X12472762Y7898397D01*
X12477157Y7914801D01*
X12402500D01*
X12327843D01*
X12332238Y7898397D01*
X12342165Y7881204D01*
X12356204Y7867165D01*
X12367961Y7860377D01*
X12369056Y7842632D01*
X12367761Y7838273D01*
X12359519Y7833514D01*
X12346486Y7820481D01*
X12342275Y7813186D01*
X12292281D01*
X11910234Y8195234D01*
X11898656Y8202969D01*
X11885000Y8205686D01*
X11572500D01*
X11558844Y8202969D01*
X11547266Y8195234D01*
X11472500Y8120467D01*
X11461510Y8122591D01*
X11452500Y8127891D01*
Y8265101D01*
Y8392101D01*
Y8519101D01*
Y8646101D01*
Y8773101D01*
Y8834314D01*
X12346692D01*
X12359519Y8821487D01*
D02*
G37*
%LPC*%
G36*
X12160400Y11447900D02*
X12117700D01*
Y11385200D01*
X12160400D01*
Y11447900D01*
D02*
G37*
G36*
X12092300D02*
X12049600D01*
Y11385200D01*
X12092300D01*
Y11447900D01*
D02*
G37*
G36*
X12160400Y11359800D02*
X12117700D01*
Y11297100D01*
X12160400D01*
Y11359800D01*
D02*
G37*
G36*
X12092300D02*
X12049600D01*
Y11297100D01*
X12092300D01*
Y11359800D01*
D02*
G37*
G36*
X13019615Y11457500D02*
X12985385D01*
X12952322Y11448641D01*
X12922678Y11431526D01*
X12898474Y11407322D01*
X12881358Y11377678D01*
X12872501Y11344615D01*
Y11310385D01*
X12881358Y11277322D01*
X12898474Y11247678D01*
X12922678Y11223474D01*
X12952322Y11206359D01*
X12985385Y11197500D01*
X13019615D01*
X13052678Y11206359D01*
X13082323Y11223474D01*
X13106525Y11247678D01*
X13123640Y11277322D01*
X13132500Y11310385D01*
Y11344615D01*
X13123640Y11377678D01*
X13106525Y11407322D01*
X13082323Y11431526D01*
X13052678Y11448641D01*
X13019615Y11457500D01*
D02*
G37*
G36*
X9919615D02*
X9885385D01*
X9852322Y11448641D01*
X9822678Y11431526D01*
X9798474Y11407322D01*
X9781359Y11377678D01*
X9772500Y11344615D01*
Y11310385D01*
X9781359Y11277322D01*
X9798474Y11247678D01*
X9822678Y11223474D01*
X9852322Y11206359D01*
X9885385Y11197500D01*
X9919615D01*
X9952678Y11206359D01*
X9982322Y11223474D01*
X10006526Y11247678D01*
X10023641Y11277322D01*
X10032500Y11310385D01*
Y11344615D01*
X10023641Y11377678D01*
X10006526Y11407322D01*
X9982322Y11431526D01*
X9952678Y11448641D01*
X9919615Y11457500D01*
D02*
G37*
G36*
X11815000Y11476561D02*
X11798032Y11474327D01*
X11782220Y11467777D01*
X11768642Y11457358D01*
X11758223Y11443781D01*
X11751673Y11427969D01*
X11749440Y11411000D01*
Y11331000D01*
X11751673Y11314032D01*
X11758223Y11298220D01*
X11768642Y11284642D01*
X11782220Y11274223D01*
X11798032Y11267673D01*
X11815000Y11265439D01*
X11831969Y11267673D01*
X11847781Y11274223D01*
X11861359Y11284642D01*
X11871777Y11298220D01*
X11878327Y11314032D01*
X11880561Y11331000D01*
Y11335314D01*
X11915000D01*
Y11302500D01*
X11929314D01*
Y11269999D01*
X11907500D01*
Y11140000D01*
X12107500D01*
Y11269999D01*
X12000686D01*
Y11302500D01*
X12015000D01*
Y11442500D01*
X11915000D01*
Y11406686D01*
X11880561D01*
Y11411000D01*
X11878327Y11427969D01*
X11871777Y11443781D01*
X11861359Y11457358D01*
X11847781Y11467777D01*
X11831969Y11474327D01*
X11815000Y11476561D01*
D02*
G37*
G36*
X12387200Y11262900D02*
X12377700D01*
Y11050199D01*
X12590400D01*
Y11059700D01*
X12581738Y11103247D01*
X12564747Y11144267D01*
X12540080Y11181184D01*
X12508684Y11212580D01*
X12471767Y11237247D01*
X12430747Y11254238D01*
X12387200Y11262900D01*
D02*
G37*
G36*
X12352300D02*
X12342800D01*
X12299253Y11254238D01*
X12258233Y11237247D01*
X12221316Y11212580D01*
X12189920Y11181184D01*
X12165253Y11144267D01*
X12148262Y11103247D01*
X12139600Y11059700D01*
Y11050199D01*
X12352300D01*
Y11262900D01*
D02*
G37*
G36*
X12112900Y10985400D02*
X12020200D01*
Y10927699D01*
X12112900D01*
Y10985400D01*
D02*
G37*
G36*
X11994800D02*
X11902100D01*
Y10927699D01*
X11994800D01*
Y10985400D01*
D02*
G37*
G36*
X12112900Y10902299D02*
X12020200D01*
Y10844600D01*
X12112900D01*
Y10902299D01*
D02*
G37*
G36*
X11994800D02*
X11902100D01*
Y10844600D01*
X11994800D01*
Y10902299D01*
D02*
G37*
G36*
X12590400Y11024799D02*
X12377700D01*
Y10812100D01*
X12387200D01*
X12430747Y10820762D01*
X12471767Y10837753D01*
X12508684Y10862420D01*
X12540080Y10893816D01*
X12564747Y10930733D01*
X12581738Y10971754D01*
X12590400Y11015300D01*
Y11024799D01*
D02*
G37*
G36*
X12352300D02*
X12139600D01*
Y11015300D01*
X12148262Y10971754D01*
X12165253Y10930733D01*
X12189920Y10893816D01*
X12221316Y10862420D01*
X12258233Y10837753D01*
X12299253Y10820762D01*
X12342800Y10812100D01*
X12352300D01*
Y11024799D01*
D02*
G37*
G36*
X10750400Y10815400D02*
X10692700D01*
Y10762699D01*
X10750400D01*
Y10815400D01*
D02*
G37*
G36*
X10667300D02*
X10609600D01*
Y10762699D01*
X10667300D01*
Y10815400D01*
D02*
G37*
G36*
X12915007Y10886500D02*
X12889993D01*
X12865833Y10880026D01*
X12844170Y10867519D01*
X12826482Y10849831D01*
X12813974Y10828169D01*
X12807500Y10804007D01*
Y10778993D01*
X12813974Y10754832D01*
X12826482Y10733169D01*
X12844170Y10715481D01*
X12865833Y10702975D01*
X12889993Y10696500D01*
X12915007D01*
X12939168Y10702975D01*
X12960831Y10715481D01*
X12978519Y10733169D01*
X12991026Y10754832D01*
X12997501Y10778993D01*
Y10804007D01*
X12991026Y10828169D01*
X12978519Y10849831D01*
X12960831Y10867519D01*
X12939168Y10880026D01*
X12915007Y10886500D01*
D02*
G37*
G36*
X10750400Y10737299D02*
X10692700D01*
Y10684600D01*
X10750400D01*
Y10737299D01*
D02*
G37*
G36*
X10667300D02*
X10609600D01*
Y10684600D01*
X10667300D01*
Y10737299D01*
D02*
G37*
G36*
X10337507Y10995000D02*
X10312493D01*
X10288332Y10988526D01*
X10266669Y10976019D01*
X10248982Y10958331D01*
X10236475Y10936668D01*
X10230000Y10912507D01*
Y10887493D01*
X10236475Y10863332D01*
X10248982Y10841669D01*
X10266669Y10823981D01*
X10288332Y10811474D01*
X10312493Y10805000D01*
X10337507D01*
X10361669Y10811474D01*
X10362550Y10811983D01*
X10414314Y10760219D01*
Y10685000D01*
X10415000Y10681551D01*
Y10600000D01*
X10545000D01*
Y10720000D01*
X10485685D01*
Y10775001D01*
X10482969Y10788657D01*
X10475233Y10800234D01*
X10413017Y10862450D01*
X10413526Y10863332D01*
X10420000Y10887493D01*
Y10912507D01*
X10413526Y10936668D01*
X10401019Y10958331D01*
X10383331Y10976019D01*
X10361669Y10988526D01*
X10337507Y10995000D01*
D02*
G37*
G36*
X12915718Y10637900D02*
X12915199D01*
Y10550200D01*
X13002901D01*
Y10550718D01*
X12996059Y10576253D01*
X12982840Y10599147D01*
X12964146Y10617840D01*
X12941254Y10631058D01*
X12915718Y10637900D01*
D02*
G37*
G36*
X12889799D02*
X12889282D01*
X12863747Y10631058D01*
X12840852Y10617840D01*
X12822160Y10599147D01*
X12808942Y10576253D01*
X12802100Y10550718D01*
Y10550200D01*
X12889799D01*
Y10637900D01*
D02*
G37*
G36*
X12697700Y10532900D02*
Y10490200D01*
X12760400D01*
Y10532900D01*
X12697700D01*
D02*
G37*
G36*
X13002901Y10524800D02*
X12915199D01*
Y10437100D01*
X12915718D01*
X12941254Y10443942D01*
X12964146Y10457160D01*
X12982840Y10475853D01*
X12996059Y10498747D01*
X13002901Y10524282D01*
Y10524800D01*
D02*
G37*
G36*
X12889799D02*
X12802100D01*
Y10524282D01*
X12808942Y10498747D01*
X12822160Y10475853D01*
X12840852Y10457160D01*
X12863747Y10443942D01*
X12889282Y10437100D01*
X12889799D01*
Y10524800D01*
D02*
G37*
G36*
X12760400Y10464800D02*
X12697700D01*
Y10422100D01*
X12760400D01*
Y10464800D01*
D02*
G37*
G36*
X10425300Y9902900D02*
X10362600D01*
Y9897500D01*
X10241000D01*
Y9737500D01*
X10362600D01*
Y9732100D01*
X10425300D01*
Y9817500D01*
Y9902900D01*
D02*
G37*
G36*
X10075400Y9727300D02*
X10032701D01*
Y9687100D01*
X10075400D01*
Y9727300D01*
D02*
G37*
G36*
X10032700Y9537900D02*
Y9497700D01*
X10075400D01*
Y9537900D01*
X10032700D01*
D02*
G37*
G36*
X12915138Y8301500D02*
X12889861D01*
X12865445Y8294957D01*
X12843555Y8282319D01*
X12825681Y8264445D01*
X12813042Y8242554D01*
X12806500Y8218138D01*
Y8192861D01*
X12813042Y8168445D01*
X12825681Y8146554D01*
X12843555Y8128681D01*
X12865445Y8116042D01*
X12889861Y8109500D01*
X12915138D01*
X12939555Y8116042D01*
X12961446Y8128681D01*
X12979318Y8146554D01*
X12991959Y8168445D01*
X12998500Y8192861D01*
Y8218138D01*
X12991959Y8242554D01*
X12979318Y8264445D01*
X12961446Y8282319D01*
X12939555Y8294957D01*
X12915138Y8301500D01*
D02*
G37*
G36*
Y8047500D02*
X12889861D01*
X12865445Y8040957D01*
X12843555Y8028319D01*
X12825681Y8010445D01*
X12813042Y7988554D01*
X12806500Y7964138D01*
Y7938861D01*
X12813042Y7914445D01*
X12825681Y7892554D01*
X12843555Y7874681D01*
X12865445Y7862042D01*
X12889861Y7855500D01*
X12915138D01*
X12939555Y7862042D01*
X12961446Y7874681D01*
X12979318Y7892554D01*
X12991959Y7914445D01*
X12998500Y7938861D01*
Y7964138D01*
X12991959Y7988554D01*
X12979318Y8010445D01*
X12961446Y8028319D01*
X12939555Y8040957D01*
X12915138Y8047500D01*
D02*
G37*
G36*
X12940500Y7800142D02*
X12915199D01*
Y7710199D01*
X13005142D01*
Y7735500D01*
X13000221Y7760237D01*
X12986209Y7781208D01*
X12965237Y7795221D01*
X12940500Y7800142D01*
D02*
G37*
G36*
X12889799D02*
X12864500D01*
X12839763Y7795221D01*
X12818791Y7781208D01*
X12804779Y7760237D01*
X12799858Y7735500D01*
Y7710199D01*
X12889799D01*
Y7800142D01*
D02*
G37*
G36*
X13005142Y7684799D02*
X12915199D01*
Y7594858D01*
X12940500D01*
X12965237Y7599778D01*
X12986209Y7613791D01*
X13000221Y7634762D01*
X13005142Y7659500D01*
Y7684799D01*
D02*
G37*
G36*
X12889799D02*
X12799858D01*
Y7659500D01*
X12804779Y7634762D01*
X12818791Y7613791D01*
X12839763Y7599778D01*
X12864500Y7594858D01*
X12889799D01*
Y7684799D01*
D02*
G37*
G36*
X12762900Y7515400D02*
X12700200D01*
Y7472700D01*
X12762900D01*
Y7515400D01*
D02*
G37*
G36*
X12674800D02*
X12612100D01*
Y7472700D01*
X12674800D01*
Y7515400D01*
D02*
G37*
G36*
X12762900Y7447300D02*
X12700200D01*
Y7404600D01*
X12762900D01*
Y7447300D01*
D02*
G37*
G36*
X12674800D02*
X12612100D01*
Y7404600D01*
X12674800D01*
Y7447300D01*
D02*
G37*
G36*
X11919600Y7292900D02*
X11900400D01*
X11899600Y7292900D01*
X11847700D01*
Y7227500D01*
Y7162100D01*
X11899600D01*
X11900400Y7162100D01*
X11919600D01*
X11920400Y7162100D01*
X11972300D01*
Y7227500D01*
Y7292900D01*
X11920400D01*
X11919600Y7292900D01*
D02*
G37*
G36*
X11769600D02*
X11750400D01*
X11749600Y7292900D01*
X11697700D01*
Y7227500D01*
Y7162100D01*
X11749600D01*
X11750400Y7162100D01*
X11769600D01*
X11770400Y7162100D01*
X11822300D01*
Y7227500D01*
Y7292900D01*
X11770400D01*
X11769600Y7292900D01*
D02*
G37*
G36*
X11522300Y7292900D02*
X11469600D01*
Y7240200D01*
X11522300D01*
Y7292900D01*
D02*
G37*
G36*
X12050400Y7214800D02*
X11997700D01*
Y7162100D01*
X12050400D01*
Y7214800D01*
D02*
G37*
G36*
X11619600Y7292900D02*
X11600400D01*
X11599600Y7292900D01*
X11547700D01*
Y7227500D01*
Y7162100D01*
X11599600D01*
X11600400Y7162100D01*
X11619600D01*
X11620400Y7162100D01*
X11672300D01*
Y7227500D01*
Y7292900D01*
X11620400D01*
X11619600Y7292900D01*
D02*
G37*
G36*
X11522300Y7214800D02*
X11469600D01*
Y7162100D01*
X11522300D01*
Y7214800D01*
D02*
G37*
G36*
X13019615Y7357500D02*
X12985385D01*
X12952322Y7348641D01*
X12922678Y7331526D01*
X12898474Y7307322D01*
X12881358Y7277678D01*
X12872501Y7244615D01*
Y7210385D01*
X12881358Y7177322D01*
X12898474Y7147678D01*
X12922678Y7123474D01*
X12952322Y7106359D01*
X12985385Y7097500D01*
X13019615D01*
X13052678Y7106359D01*
X13082323Y7123474D01*
X13106525Y7147678D01*
X13123640Y7177322D01*
X13132500Y7210385D01*
Y7244615D01*
X13123640Y7277678D01*
X13106525Y7307322D01*
X13082323Y7331526D01*
X13052678Y7348641D01*
X13019615Y7357500D01*
D02*
G37*
G36*
X9919615D02*
X9885385D01*
X9852322Y7348641D01*
X9822678Y7331526D01*
X9798474Y7307322D01*
X9781359Y7277678D01*
X9772500Y7244615D01*
Y7210385D01*
X9781359Y7177322D01*
X9798474Y7147678D01*
X9822678Y7123474D01*
X9852322Y7106359D01*
X9885385Y7097500D01*
X9919615D01*
X9952678Y7106359D01*
X9982322Y7123474D01*
X10006526Y7147678D01*
X10023641Y7177322D01*
X10032500Y7210385D01*
Y7244615D01*
X10023641Y7277678D01*
X10006526Y7307322D01*
X9982322Y7331526D01*
X9952678Y7348641D01*
X9919615Y7357500D01*
D02*
G37*
G36*
X12411716Y9397500D02*
X12393285D01*
X12375481Y9392730D01*
X12359519Y9383514D01*
X12346486Y9370481D01*
X12337271Y9354520D01*
X12332500Y9336716D01*
Y9318285D01*
X12337271Y9300482D01*
X12346486Y9284520D01*
X12359519Y9271487D01*
X12367761Y9266728D01*
X12369056Y9262369D01*
X12367961Y9244624D01*
X12356204Y9237836D01*
X12342165Y9223797D01*
X12332238Y9206604D01*
X12327844Y9190201D01*
X12402500D01*
X12477157D01*
X12472762Y9206604D01*
X12462835Y9223797D01*
X12448797Y9237836D01*
X12437039Y9244624D01*
X12435944Y9262369D01*
X12437239Y9266728D01*
X12445481Y9271487D01*
X12458514Y9284520D01*
X12467730Y9300482D01*
X12472500Y9318285D01*
Y9336716D01*
X12467730Y9354520D01*
X12458514Y9370481D01*
X12445481Y9383514D01*
X12429519Y9392730D01*
X12411716Y9397500D01*
D02*
G37*
G36*
X12755400Y8997900D02*
X12692700D01*
Y8955201D01*
X12755400D01*
Y8997900D01*
D02*
G37*
G36*
X12667300D02*
X12604600D01*
Y8955201D01*
X12667300D01*
Y8997900D01*
D02*
G37*
G36*
X12755400Y8929801D02*
X12692700D01*
Y8887100D01*
X12755400D01*
Y8929801D01*
D02*
G37*
G36*
X12667300D02*
X12604600D01*
Y8887100D01*
X12667300D01*
Y8929801D01*
D02*
G37*
G36*
X12411716Y8147500D02*
X12393285D01*
X12375481Y8142730D01*
X12359519Y8133514D01*
X12346486Y8120481D01*
X12337271Y8104519D01*
X12332500Y8086716D01*
Y8068285D01*
X12337271Y8050481D01*
X12346486Y8034519D01*
X12359519Y8021486D01*
X12367761Y8016728D01*
X12369056Y8012369D01*
X12367961Y7994624D01*
X12356204Y7987835D01*
X12342165Y7973797D01*
X12332238Y7956604D01*
X12327844Y7940201D01*
X12402500D01*
X12477157D01*
X12472762Y7956604D01*
X12462835Y7973797D01*
X12448797Y7987835D01*
X12437039Y7994624D01*
X12435944Y8012369D01*
X12437239Y8016728D01*
X12445481Y8021486D01*
X12458514Y8034519D01*
X12467730Y8050481D01*
X12472500Y8068285D01*
Y8086716D01*
X12467730Y8104519D01*
X12458514Y8120481D01*
X12445481Y8133514D01*
X12429519Y8142730D01*
X12411716Y8147500D01*
D02*
G37*
%LPD*%
D10*
X11985000Y7667500D02*
D03*
X12680000Y8662500D02*
D03*
Y8522500D02*
D03*
X12687500Y7460000D02*
D03*
X12680000Y8942500D02*
D03*
X12685000Y10477500D02*
D03*
Y10337500D02*
D03*
X12680000Y8802500D02*
D03*
X12687500Y7600000D02*
D03*
X11685000Y7667500D02*
D03*
X10162500Y10542500D02*
D03*
Y10402500D02*
D03*
X11835000Y7527500D02*
D03*
Y7667500D02*
D03*
X11985000Y7527500D02*
D03*
X11535000D02*
D03*
Y7667500D02*
D03*
X11685000Y7527500D02*
D03*
D11*
X11372500Y8208100D02*
D03*
Y8589100D02*
D03*
Y8335100D02*
D03*
Y8716100D02*
D03*
Y8462100D02*
D03*
Y8081100D02*
D03*
Y9351100D02*
D03*
Y7954100D02*
D03*
Y8843100D02*
D03*
Y8970100D02*
D03*
Y9097100D02*
D03*
Y9224100D02*
D03*
Y7827100D02*
D03*
Y7700100D02*
D03*
X10138500Y7827100D02*
D03*
Y9351100D02*
D03*
Y9224100D02*
D03*
Y9097100D02*
D03*
Y7700100D02*
D03*
Y8335100D02*
D03*
Y8843100D02*
D03*
Y8716100D02*
D03*
Y8589100D02*
D03*
Y8462100D02*
D03*
Y8208100D02*
D03*
Y8081100D02*
D03*
Y7954100D02*
D03*
Y8970100D02*
D03*
D12*
X11685000Y7227500D02*
D03*
X11835000D02*
D03*
X11985000D02*
D03*
X11535000D02*
D03*
Y7377500D02*
D03*
X11985000D02*
D03*
X11835000D02*
D03*
X11685000D02*
D03*
D13*
X12105000Y11372500D02*
D03*
X10040000Y9867500D02*
D03*
X9900000D02*
D03*
X11965000Y11372500D02*
D03*
X10680000Y10407500D02*
D03*
X10540000D02*
D03*
D14*
X12007500Y10915000D02*
D03*
Y11204999D02*
D03*
D15*
X10680000Y10750000D02*
D03*
Y10570000D02*
D03*
X10480000Y10660000D02*
D03*
D16*
X10438000Y9817500D02*
D03*
X11200000D02*
D03*
X11073000D02*
D03*
X10946000D02*
D03*
X10819000D02*
D03*
X10692000D02*
D03*
X10565000D02*
D03*
X10311000D02*
D03*
D17*
X10756500Y8200100D02*
D03*
D18*
X10020000Y9485000D02*
D03*
Y9740000D02*
D03*
X9901000Y9485000D02*
D03*
Y9740000D02*
D03*
D19*
X11030503Y10250502D02*
D03*
X11129498Y10349497D02*
D03*
X10933003Y10350503D02*
D03*
X11031998Y10449498D02*
D03*
D20*
X10722500Y10975000D02*
D03*
Y11285000D02*
D03*
D21*
X11652500Y8012500D02*
X11770000D01*
X11985000Y7667500D02*
Y7797500D01*
X11770000Y8012500D02*
X11985000Y7797500D01*
X11255600Y8208100D02*
X11372500D01*
X11142500Y8095000D02*
X11255600Y8208100D01*
X11010000Y8095000D02*
X11142500D01*
X11358581Y8603020D02*
X11372500Y8589100D01*
X10989226Y8603020D02*
X11358581D01*
X11280100Y8335100D02*
X11372500D01*
X11160000Y8215000D02*
X11280100Y8335100D01*
X11027500Y8215000D02*
X11160000D01*
X11366399Y8710000D02*
X11372500Y8716100D01*
X11015000Y8710000D02*
X11366399D01*
X11017500Y8507500D02*
X11028324D01*
X11073724Y8462100D01*
X11372500D01*
X11231100Y8081100D02*
X11372500D01*
X11050000Y7900000D02*
X11231100Y8081100D01*
X12680000Y8662500D02*
Y8802500D01*
X11399399Y8870000D02*
X12395000D01*
X12402500Y8877500D01*
X12227500Y8662500D02*
X12292500Y8727500D01*
X12402500D01*
X12547500D01*
X12547500Y8727500D02*
X12609430Y8789430D01*
X12547500Y8727500D02*
X12547500Y8727500D01*
X12190001Y9027501D02*
X12402500D01*
X12132601Y8970100D02*
X12190001Y9027501D01*
X11372500Y8970100D02*
X12132601D01*
X12666930Y8789430D02*
X12680000Y8802500D01*
X12609430Y8789430D02*
X12666930D01*
X12227500Y8425000D02*
Y8662500D01*
Y8425000D02*
X12312500Y8340000D01*
X12565000D01*
X12687500Y8217500D01*
Y7600000D02*
Y8217500D01*
X11372500Y8843100D02*
X11399399Y8870000D01*
X12515000Y9460000D02*
X12717500Y9257500D01*
Y9152500D02*
Y9257500D01*
X10552500Y9460000D02*
X12515000D01*
X10692500Y9818001D02*
Y10120000D01*
X10270000Y10542500D02*
X10692500Y10120000D01*
X10162500Y10542500D02*
X10270000D01*
X10692000Y9817500D02*
X10692500Y9818001D01*
X10690000Y9727500D02*
Y9825000D01*
Y9727500D02*
X10750000Y9667500D01*
X10165000Y10955000D02*
X10280000Y11070000D01*
X10627500D02*
X10676500Y11021000D01*
X10280000Y11070000D02*
X10627500D01*
X10676500Y11017500D02*
X10719000Y10975000D01*
X10722500D01*
X10676500Y11017500D02*
Y11021000D01*
X11770000Y7857500D02*
X11835000Y7792500D01*
X11590000Y7857500D02*
X11770000D01*
X11372500Y9097100D02*
X11407500Y9132101D01*
X11908776D02*
X11934176Y9157500D01*
X11407500Y9132101D02*
X11908776D01*
X11934176Y9157500D02*
X11945000D01*
X10542500Y7100000D02*
X12602500D01*
X9882500Y7760000D02*
X10542500Y7100000D01*
X12602500D02*
X13062500Y7560000D01*
X9810000Y7632500D02*
Y8625000D01*
X10028101Y8843100D01*
X9882500Y7760000D02*
Y8562500D01*
X10036101Y8716100D01*
X11137500Y7805000D02*
X11255000Y7687500D01*
Y7565000D02*
Y7687500D01*
X10165000Y10545000D02*
Y10955000D01*
X10325000Y10900000D02*
X10450000Y10775001D01*
Y10685000D02*
X10475000Y10660000D01*
X10450000Y10685000D02*
Y10775001D01*
X10179926Y10345074D02*
X10325000Y10200000D01*
X10179926Y10345074D02*
Y10387500D01*
X10164926Y10402500D02*
X10179926Y10387500D01*
X10162500Y10402500D02*
X10164926D01*
X10475000Y10660000D02*
X10480000D01*
X12717500Y9152500D02*
X12902499Y8967500D01*
X12780500Y9597500D02*
X12902499Y9475500D01*
X10384899Y9597500D02*
X12780500D01*
X10220870Y9128370D02*
X10552500Y9460000D01*
X12594000Y9530000D02*
X12902499Y9221500D01*
X10477500Y9530000D02*
X12594000D01*
X10206601Y9259101D02*
X10477500Y9530000D01*
X10183500Y9396101D02*
X10384899Y9597500D01*
X12586500Y9667500D02*
X12902499Y9983500D01*
X10750000Y9667500D02*
X12586500D01*
X10028101Y8843100D02*
X10138500D01*
X10036101Y8716100D02*
X10138500D01*
X13062500Y7560000D02*
Y8299500D01*
X12902499Y8459500D02*
X13062500Y8299500D01*
X9962500Y8330000D02*
X10133399D01*
X10138500Y8335100D01*
X9962500Y8207500D02*
X10137899D01*
X10138500Y8208100D01*
X12265000Y7477500D02*
X12402500D01*
X12525000Y7600000D01*
X12687500D01*
X12102500Y7315000D02*
X12265000Y7477500D01*
X10400000Y7705000D02*
X11085000D01*
X10317500Y7787500D02*
X10400000Y7705000D01*
X10462500Y7805000D02*
X11137500D01*
X11572500Y8170000D02*
X11885000D01*
X11495000Y8042500D02*
Y8092500D01*
X11572500Y8170000D01*
X11555000Y8052500D02*
X11607500Y8105000D01*
X11555000Y7952500D02*
Y8052500D01*
X11607500Y8105000D02*
X11815000D01*
X11441600Y7989101D02*
X11495000Y8042500D01*
X11407500Y7989101D02*
X11441600D01*
X11464601Y7862101D02*
X11555000Y7952500D01*
X12283254Y7636746D02*
X12393254D01*
X11815000Y8105000D02*
X12283254Y7636746D01*
X12277500Y7777500D02*
X12402500D01*
X11885000Y8170000D02*
X12277500Y7777500D01*
X11372500Y7954100D02*
X11407500Y7989101D01*
X12393254Y7636746D02*
X12402500Y7627500D01*
X11407500Y7862101D02*
X11464601D01*
X11372500Y7827100D02*
X11407500Y7862101D01*
X10169769Y9128370D02*
X10220870D01*
X10138500Y9097100D02*
X10169769Y9128370D01*
X10173500Y9259101D02*
X10206601D01*
X10138500Y9224100D02*
X10173500Y9259101D01*
X10183500Y9386101D02*
Y9396101D01*
X10138500Y9351100D02*
X10148500D01*
X10183500Y9386101D01*
X10138399Y8970000D02*
X10138500Y8970100D01*
X9947500Y8970000D02*
X10138399D01*
X12886926Y8459500D02*
X12902499D01*
X12680000Y8522500D02*
X12823926D01*
X12886926Y8459500D01*
X12962500Y8840000D02*
X13035001Y8912500D01*
X12680000Y8802500D02*
X12770000D01*
X12807500Y8840000D01*
X12962500D01*
X12902499Y9729500D02*
X13035001Y9597000D01*
Y8912500D02*
Y9597000D01*
X13064999Y9892000D02*
Y10121000D01*
X12902499Y9729500D02*
X13064999Y9892000D01*
X12902499Y10283500D02*
X13064999Y10121000D01*
X12824927Y10337500D02*
X12878926Y10283500D01*
X12685000Y10337500D02*
X12824927D01*
X12878926Y10283500D02*
X12902499D01*
X11685000Y7667500D02*
Y7770000D01*
X9963900Y8081100D02*
X10138500D01*
X11372500Y7700100D02*
X11405100Y7667500D01*
X11535000D01*
X10912500Y9851000D02*
Y10188823D01*
X10852500Y9851000D02*
Y10213676D01*
X10912500Y9851000D02*
X10946000Y9817500D01*
X10819000D02*
X10852500Y9851000D01*
X10555074Y9827426D02*
Y9947426D01*
Y9827426D02*
X10565000Y9817500D01*
X10450000Y10052500D02*
X10555074Y9947426D01*
X10120000Y10052500D02*
X10450000D01*
X10040000Y9972500D02*
X10120000Y10052500D01*
X10040000Y9867500D02*
Y9972500D01*
X10933003Y10350503D02*
X10947145Y10336360D01*
Y10315147D02*
Y10336360D01*
X10938132Y10306134D02*
X10947145Y10315147D01*
X10938132Y10299308D02*
Y10306134D01*
X10852500Y10213676D02*
X10938132Y10299308D01*
X11016360Y10264645D02*
X11030503Y10250502D01*
X10995147Y10264645D02*
X11016360D01*
X10986134Y10255631D02*
X10995147Y10264645D01*
X10979307Y10255631D02*
X10986134D01*
X10912500Y10188823D02*
X10979307Y10255631D01*
X10540000Y10387500D02*
X10655000Y10272499D01*
X10540000Y10387500D02*
Y10407500D01*
X10162500Y10542500D02*
X10165000Y10545000D01*
X11835000Y7667500D02*
Y7792500D01*
X11412500Y10688823D02*
Y10899926D01*
X11115355Y10384853D02*
X11124369Y10393866D01*
X11115355Y10363640D02*
Y10384853D01*
X11412500Y10899926D02*
X11418304Y10905730D01*
X11124369Y10393866D02*
Y10400692D01*
X11418304Y10905730D02*
Y10928303D01*
X11425000Y10935000D01*
X11124369Y10400692D02*
X11412500Y10688823D01*
X11115355Y10363640D02*
X11129498Y10349497D01*
X11031998Y10449498D02*
X11046140Y10435355D01*
X11067353D01*
X11076366Y10444368D01*
X11083193D01*
X11352500Y10713676D01*
Y10899926D01*
X11346697Y10905730D02*
Y10928303D01*
X11340000Y10935000D02*
X11346697Y10928303D01*
Y10905730D02*
X11352500Y10899926D01*
X10680000Y10407500D02*
Y10570000D01*
X11535000Y7377500D02*
Y7527500D01*
X11685000Y7377500D02*
Y7527500D01*
X11835000Y7377500D02*
Y7527500D01*
X11985000Y7377500D02*
Y7527500D01*
X9901000Y9485000D02*
Y9740000D01*
X9900500Y9740500D02*
X9901000Y9740000D01*
X9900500Y9740500D02*
Y9867000D01*
X9900000Y9867500D02*
X9900500Y9867000D01*
X11995000Y11204999D02*
X12007500D01*
X11965000Y11235000D02*
X11995000Y11204999D01*
X11965000Y11235000D02*
Y11372500D01*
X11963500Y11371000D02*
X11965000Y11372500D01*
X11815000Y11371000D02*
X11963500D01*
X11170000Y11070000D02*
Y11154189D01*
X11560811D01*
X10765000Y11242500D02*
X11081689D01*
X11170001Y11154189D01*
X11560811D02*
X11595000Y11120000D01*
X10722500Y11285000D02*
X10765000Y11242500D01*
X11595000Y11070000D02*
Y11120000D01*
D22*
X11416390Y10943610D02*
X11425000Y10935000D01*
X11345444Y11027056D02*
Y11064556D01*
Y11027056D02*
X11416390Y10956110D01*
Y10943610D02*
Y10956110D01*
X11340000Y11070000D02*
X11345444Y11064556D01*
D23*
X10325000Y10200000D02*
D03*
Y10900000D02*
D03*
X12902499Y10537500D02*
D03*
Y10283500D02*
D03*
Y10791500D02*
D03*
X11700000Y10387500D02*
D03*
D24*
X12365000Y11037500D02*
D03*
D25*
Y10437500D02*
D03*
D26*
X12300000Y9882500D02*
D03*
X11800000D02*
D03*
D27*
X11900000Y10387500D02*
D03*
D28*
X12402500Y8077500D02*
D03*
Y7927500D02*
D03*
Y7777500D02*
D03*
Y7327500D02*
D03*
Y7627500D02*
D03*
Y7477500D02*
D03*
Y9327501D02*
D03*
Y9177501D02*
D03*
Y9027501D02*
D03*
Y8577500D02*
D03*
Y8877500D02*
D03*
Y8727500D02*
D03*
D29*
X12902499Y7697500D02*
D03*
D30*
X11680000Y10935000D02*
D03*
X11085000D02*
D03*
Y11070000D02*
D03*
X11680000D02*
D03*
X11595000D02*
D03*
X11510000D02*
D03*
X11425000D02*
D03*
X11340000D02*
D03*
X11255000D02*
D03*
X11170000D02*
D03*
Y10935000D02*
D03*
X11255000D02*
D03*
X11340000D02*
D03*
X11425000D02*
D03*
X11510000D02*
D03*
X11595000D02*
D03*
D31*
X12902499Y9729500D02*
D03*
Y8713500D02*
D03*
Y8459500D02*
D03*
Y9221500D02*
D03*
Y9475500D02*
D03*
Y9983500D02*
D03*
Y8967500D02*
D03*
Y7951500D02*
D03*
Y8205500D02*
D03*
D32*
X10950000Y11033000D02*
D03*
X11815000D02*
D03*
D33*
X10950000Y11371000D02*
D03*
X11815000D02*
D03*
D34*
X11857500Y10005000D02*
D03*
X11757500D02*
D03*
Y10105000D02*
D03*
X11535000Y9855000D02*
D03*
X11635000D02*
D03*
X11652500Y8012500D02*
D03*
X11010000Y8095000D02*
D03*
X10989226Y8603020D02*
D03*
X11027500Y8215000D02*
D03*
X11015000Y8710000D02*
D03*
X11017500Y8507500D02*
D03*
X11050000Y7900000D02*
D03*
X12400000Y8435000D02*
D03*
X11099997Y7499998D02*
D03*
X12599996Y11399997D02*
D03*
X12749996D02*
D03*
X9899997Y10799997D02*
D03*
X11624996Y8549997D02*
D03*
X10949997Y10799997D02*
D03*
X10424997Y8249997D02*
D03*
X9899997Y10199997D02*
D03*
X10874997Y10649997D02*
D03*
X10199997Y11399997D02*
D03*
X12299996D02*
D03*
X9899997Y10499997D02*
D03*
Y11099997D02*
D03*
X12674996Y11249997D02*
D03*
X10499997Y11399997D02*
D03*
X11024996Y10649997D02*
D03*
X10424997Y11249997D02*
D03*
X9974997Y10649997D02*
D03*
X10949997Y7499998D02*
D03*
X12674996Y10949997D02*
D03*
X10049997Y10199997D02*
D03*
X10124997Y11249997D02*
D03*
X10049997Y11099997D02*
D03*
X9974997Y10949997D02*
D03*
X10349997Y11399997D02*
D03*
X10199997Y9599997D02*
D03*
X10274997Y11249997D02*
D03*
X9974997Y10349997D02*
D03*
X12449996Y11399997D02*
D03*
X10570000Y10042500D02*
D03*
X10692500Y10120000D02*
D03*
X10902500Y7960000D02*
D03*
X11507500Y10735000D02*
D03*
X10160000Y9932500D02*
D03*
X10147500Y9492500D02*
D03*
X10567500Y9690000D02*
D03*
X11042500Y9382500D02*
D03*
X10940000Y8805000D02*
D03*
X10667500Y8700000D02*
D03*
X10260000Y8552500D02*
D03*
X10265000Y7695000D02*
D03*
X10345000Y7490000D02*
D03*
X10625000Y8485000D02*
D03*
X10820000D02*
D03*
X12255000Y7567500D02*
D03*
X12547500Y7415000D02*
D03*
X12780000Y8080000D02*
D03*
X12400000Y8237500D02*
D03*
X12277500Y9107500D02*
D03*
X12112500Y8620000D02*
D03*
X11932500Y9052500D02*
D03*
X11522500Y9387500D02*
D03*
X11945000Y9157500D02*
D03*
X13087500Y9732500D02*
D03*
X11447500Y11242500D02*
D03*
X11410000Y10500000D02*
D03*
X11300000Y10360000D02*
D03*
X11210000Y10192500D02*
D03*
X11225000Y10772500D02*
D03*
X10855000Y10482500D02*
D03*
X10790000Y10307500D02*
D03*
X9865000Y8850000D02*
D03*
X13097501Y8667500D02*
D03*
X13075000Y7430000D02*
D03*
X12797500Y7132500D02*
D03*
X9810000Y7445000D02*
D03*
X10165000Y7125000D02*
D03*
X10715000Y7445000D02*
D03*
X9810000Y7632500D02*
D03*
X11255000Y7565000D02*
D03*
X9962500Y8330000D02*
D03*
Y8207500D02*
D03*
X12102500Y7315000D02*
D03*
X10462500Y7805000D02*
D03*
X10317500Y7787500D02*
D03*
X11085000Y7705000D02*
D03*
X9947500Y8970000D02*
D03*
X11685000Y7770000D02*
D03*
X9962500Y8082500D02*
D03*
X10655000Y10272499D02*
D03*
X11590000Y7857500D02*
D03*
%TF.MD5,385fc4672463a1fd77c891fdf519d419*%
M02*
