%TF.GenerationSoftware,Altium Limited,Altium Designer,26.2.0 (7)*%
G04 Layer_Color=8388736*
%FSLAX45Y45*%
%MOMM*%
%TF.SameCoordinates,0EF2FD25-9F0B-49EC-8662-A35640DF5B91*%
%TF.FilePolarity,Negative*%
%TF.FileFunction,Soldermask,Top*%
%TF.Part,Single*%
G01*
G75*
%TA.AperFunction,SMDPad,CuDef*%
%ADD20R,1.22000X1.15000*%
%TA.AperFunction,ComponentPad*%
%ADD28C,1.00000*%
%ADD30C,0.65000*%
G04:AMPARAMS|DCode=32|XSize=0.9mm|YSize=2.4mm|CornerRadius=0.45mm|HoleSize=0mm|Usage=FLASHONLY|Rotation=180.000|XOffset=0mm|YOffset=0mm|HoleType=Round|Shape=RoundedRectangle|*
%AMROUNDEDRECTD32*
21,1,0.90000,1.50000,0,0,180.0*
21,1,0.00000,2.40000,0,0,180.0*
1,1,0.90000,0.00000,0.75000*
1,1,0.90000,0.00000,0.75000*
1,1,0.90000,0.00000,-0.75000*
1,1,0.90000,0.00000,-0.75000*
%
%ADD32ROUNDEDRECTD32*%
G04:AMPARAMS|DCode=33|XSize=0.9mm|YSize=1.7mm|CornerRadius=0.45mm|HoleSize=0mm|Usage=FLASHONLY|Rotation=180.000|XOffset=0mm|YOffset=0mm|HoleType=Round|Shape=RoundedRectangle|*
%AMROUNDEDRECTD33*
21,1,0.90000,0.80000,0,0,180.0*
21,1,0.00000,1.70000,0,0,180.0*
1,1,0.90000,0.00000,0.40000*
1,1,0.90000,0.00000,0.40000*
1,1,0.90000,0.00000,-0.40000*
1,1,0.90000,0.00000,-0.40000*
%
%ADD33ROUNDEDRECTD33*%
%TA.AperFunction,SMDPad,CuDef*%
%ADD53R,1.20320X0.80320*%
%TA.AperFunction,ConnectorPad*%
%ADD54R,1.40320X1.20320*%
%TA.AperFunction,SMDPad,CuDef*%
%ADD55R,1.00320X1.00320*%
%ADD56R,0.80320X1.20320*%
%ADD57R,1.80320X1.10320*%
%ADD58R,1.10320X1.00320*%
%TA.AperFunction,ConnectorPad*%
%ADD59R,1.20320X1.40320*%
%TA.AperFunction,SMDPad,CuDef*%
%ADD60R,4.00320X4.00320*%
%ADD61R,0.80320X0.75320*%
G04:AMPARAMS|DCode=62|XSize=0.8032mm|YSize=1.2032mm|CornerRadius=0mm|HoleSize=0mm|Usage=FLASHONLY|Rotation=225.000|XOffset=0mm|YOffset=0mm|HoleType=Round|Shape=Rectangle|*
%AMROTATEDRECTD62*
4,1,4,-0.14142,0.70937,0.70937,-0.14142,0.14142,-0.70937,-0.70937,0.14142,-0.14142,0.70937,0.0*
%
%ADD62ROTATEDRECTD62*%

%TA.AperFunction,ComponentPad*%
%ADD63C,1.70320*%
%ADD64C,4.20320*%
%ADD65R,4.20320X4.20320*%
%ADD66C,2.20320*%
%ADD67R,1.70320X1.70320*%
G04:AMPARAMS|DCode=68|XSize=1.7232mm|YSize=1.7232mm|CornerRadius=0.4816mm|HoleSize=0mm|Usage=FLASHONLY|Rotation=90.000|XOffset=0mm|YOffset=0mm|HoleType=Round|Shape=RoundedRectangle|*
%AMROUNDEDRECTD68*
21,1,1.72320,0.76000,0,0,90.0*
21,1,0.76000,1.72320,0,0,90.0*
1,1,0.96320,0.38000,0.38000*
1,1,0.96320,0.38000,-0.38000*
1,1,0.96320,-0.38000,-0.38000*
1,1,0.96320,-0.38000,0.38000*
%
%ADD68ROUNDEDRECTD68*%
%ADD69C,1.72320*%
%TA.AperFunction,WasherPad*%
%ADD70R,0.20320X0.20320*%
%TA.AperFunction,ViaPad*%
%ADD71C,0.90320*%
D20*
X10722500Y10975000D02*
D03*
Y11285000D02*
D03*
D28*
X12402500Y8077500D02*
D03*
Y7927500D02*
D03*
Y7777500D02*
D03*
Y7327500D02*
D03*
Y7627500D02*
D03*
Y7477500D02*
D03*
Y9327501D02*
D03*
Y9177501D02*
D03*
Y9027501D02*
D03*
Y8577500D02*
D03*
Y8877500D02*
D03*
Y8727500D02*
D03*
D30*
X11680000Y10935000D02*
D03*
X11085000D02*
D03*
Y11070000D02*
D03*
X11680000D02*
D03*
X11595000D02*
D03*
X11510000D02*
D03*
X11425000D02*
D03*
X11340000D02*
D03*
X11255000D02*
D03*
X11170000D02*
D03*
Y10935000D02*
D03*
X11255000D02*
D03*
X11340000D02*
D03*
X11425000D02*
D03*
X11510000D02*
D03*
X11595000D02*
D03*
D32*
X10950000Y11033000D02*
D03*
X11815000D02*
D03*
D33*
X10950000Y11371000D02*
D03*
X11815000D02*
D03*
D53*
X11985000Y7667500D02*
D03*
X12680000Y8662500D02*
D03*
Y8522500D02*
D03*
X12687500Y7460000D02*
D03*
X12680000Y8942500D02*
D03*
X12685000Y10477500D02*
D03*
Y10337500D02*
D03*
X12680000Y8802500D02*
D03*
X12687500Y7600000D02*
D03*
X11685000Y7667500D02*
D03*
X10162500Y10542500D02*
D03*
Y10402500D02*
D03*
X11835000Y7527500D02*
D03*
Y7667500D02*
D03*
X11985000Y7527500D02*
D03*
X11535000D02*
D03*
Y7667500D02*
D03*
X11685000Y7527500D02*
D03*
D54*
X11372500Y8208100D02*
D03*
Y8589100D02*
D03*
Y8335100D02*
D03*
Y8716100D02*
D03*
Y8462100D02*
D03*
Y8081100D02*
D03*
Y9351100D02*
D03*
Y7954100D02*
D03*
Y8843100D02*
D03*
Y8970100D02*
D03*
Y9097100D02*
D03*
Y9224100D02*
D03*
Y7827100D02*
D03*
Y7700100D02*
D03*
X10138500Y7827100D02*
D03*
Y9351100D02*
D03*
Y9224100D02*
D03*
Y9097100D02*
D03*
Y7700100D02*
D03*
Y8335100D02*
D03*
Y8843100D02*
D03*
Y8716100D02*
D03*
Y8589100D02*
D03*
Y8462100D02*
D03*
Y8208100D02*
D03*
Y8081100D02*
D03*
Y7954100D02*
D03*
Y8970100D02*
D03*
D55*
X11685000Y7227500D02*
D03*
X11835000D02*
D03*
X11985000D02*
D03*
X11535000D02*
D03*
Y7377500D02*
D03*
X11985000D02*
D03*
X11835000D02*
D03*
X11685000D02*
D03*
D56*
X12105000Y11372500D02*
D03*
X10040000Y9867500D02*
D03*
X9900000D02*
D03*
X11965000Y11372500D02*
D03*
X10680000Y10407500D02*
D03*
X10540000D02*
D03*
D57*
X12007500Y10915000D02*
D03*
Y11204999D02*
D03*
D58*
X10680000Y10750000D02*
D03*
Y10570000D02*
D03*
X10480000Y10660000D02*
D03*
D59*
X10438000Y9817500D02*
D03*
X11200000D02*
D03*
X11073000D02*
D03*
X10946000D02*
D03*
X10819000D02*
D03*
X10692000D02*
D03*
X10565000D02*
D03*
X10311000D02*
D03*
D60*
X10756500Y8200100D02*
D03*
D61*
X10020000Y9485000D02*
D03*
Y9740000D02*
D03*
X9901000Y9485000D02*
D03*
Y9740000D02*
D03*
D62*
X11030503Y10250502D02*
D03*
X11129498Y10349497D02*
D03*
X10933003Y10350503D02*
D03*
X11031998Y10449498D02*
D03*
D63*
X10325000Y10200000D02*
D03*
Y10900000D02*
D03*
X12902499Y10537500D02*
D03*
Y10283500D02*
D03*
Y10791500D02*
D03*
X11700000Y10387500D02*
D03*
D64*
X12365000Y11037500D02*
D03*
D65*
Y10437500D02*
D03*
D66*
X12300000Y9882500D02*
D03*
X11800000D02*
D03*
D67*
X11900000Y10387500D02*
D03*
D68*
X12902499Y7697500D02*
D03*
D69*
Y9729500D02*
D03*
Y8713500D02*
D03*
Y8459500D02*
D03*
Y9221500D02*
D03*
Y9475500D02*
D03*
Y9983500D02*
D03*
Y8967500D02*
D03*
Y7951500D02*
D03*
Y8205500D02*
D03*
D70*
X9902500Y11327500D02*
D03*
X13002499Y7227500D02*
D03*
X9902500D02*
D03*
X13002499Y11327500D02*
D03*
D71*
X11652500Y8012500D02*
D03*
X11010000Y8095000D02*
D03*
X10989226Y8603020D02*
D03*
X11027500Y8215000D02*
D03*
X11015000Y8710000D02*
D03*
X11017500Y8507500D02*
D03*
X11050000Y7900000D02*
D03*
X12400000Y8435000D02*
D03*
X11099997Y7499998D02*
D03*
X12599996Y11399997D02*
D03*
X12749996D02*
D03*
X9899997Y10799997D02*
D03*
X11624996Y8549997D02*
D03*
X10949997Y10799997D02*
D03*
X10424997Y8249997D02*
D03*
X9899997Y10199997D02*
D03*
X10874997Y10649997D02*
D03*
X10199997Y11399997D02*
D03*
X12299996D02*
D03*
X9899997Y10499997D02*
D03*
Y11099997D02*
D03*
X12674996Y11249997D02*
D03*
X10499997Y11399997D02*
D03*
X11024996Y10649997D02*
D03*
X10424997Y11249997D02*
D03*
X9974997Y10649997D02*
D03*
X10949997Y7499998D02*
D03*
X12674996Y10949997D02*
D03*
X10049997Y10199997D02*
D03*
X10124997Y11249997D02*
D03*
X10049997Y11099997D02*
D03*
X9974997Y10949997D02*
D03*
X10349997Y11399997D02*
D03*
X10199997Y9599997D02*
D03*
X10274997Y11249997D02*
D03*
X9974997Y10349997D02*
D03*
X12449996Y11399997D02*
D03*
X10570000Y10042500D02*
D03*
X10692500Y10120000D02*
D03*
X10902500Y7960000D02*
D03*
X11507500Y10735000D02*
D03*
X10160000Y9932500D02*
D03*
X10147500Y9492500D02*
D03*
X10567500Y9690000D02*
D03*
X11042500Y9382500D02*
D03*
X10940000Y8805000D02*
D03*
X10667500Y8700000D02*
D03*
X10260000Y8552500D02*
D03*
X10265000Y7695000D02*
D03*
X10345000Y7490000D02*
D03*
X10625000Y8485000D02*
D03*
X10820000D02*
D03*
X12255000Y7567500D02*
D03*
X12547500Y7415000D02*
D03*
X12780000Y8080000D02*
D03*
X12400000Y8237500D02*
D03*
X12277500Y9107500D02*
D03*
X12112500Y8620000D02*
D03*
X11932500Y9052500D02*
D03*
X11522500Y9387500D02*
D03*
X11945000Y9157500D02*
D03*
X13087500Y9732500D02*
D03*
X11447500Y11242500D02*
D03*
X11410000Y10500000D02*
D03*
X11300000Y10360000D02*
D03*
X11210000Y10192500D02*
D03*
X11225000Y10772500D02*
D03*
X10855000Y10482500D02*
D03*
X10790000Y10307500D02*
D03*
X9865000Y8850000D02*
D03*
X13097501Y8667500D02*
D03*
X13075000Y7430000D02*
D03*
X12797500Y7132500D02*
D03*
X9810000Y7445000D02*
D03*
X10165000Y7125000D02*
D03*
X10715000Y7445000D02*
D03*
X9810000Y7632500D02*
D03*
X11255000Y7565000D02*
D03*
X9962500Y8330000D02*
D03*
Y8207500D02*
D03*
X12102500Y7315000D02*
D03*
X10462500Y7805000D02*
D03*
X10317500Y7787500D02*
D03*
X11085000Y7705000D02*
D03*
X9947500Y8970000D02*
D03*
X11685000Y7770000D02*
D03*
X9962500Y8082500D02*
D03*
X10655000Y10272499D02*
D03*
X11590000Y7857500D02*
D03*
%TF.MD5,efc865518727d3984c897ee75e0e5268*%
M02*
